<?xml version="1.0" encoding="UTF-8"?>
<svg id="Ebene_1" xmlns="http://www.w3.org/2000/svg" version="1.1" viewBox="0 0 841.9 595.3">
  <!-- Generator: Adobe Illustrator 29.3.1, SVG Export Plug-In . SVG Version: 2.1.0 Build 151)  -->
  <defs>
    <style>
      .st0 {
        fill: #002864;
      }
    </style>
  </defs>
  <path class="st0" d="M57,162.9l106.9-106.9c-55.8,6.4-100.2,50.8-106.9,106.9Z"/>
  <path class="st0" d="M298.5,192.2l-106.9,106.9c55.8-6.4,100.2-50.8,106.9-106.9h0Z"/>
  <path class="st0" d="M204.1,58.1l-78.9,78.9-24.5,24.7c-2.9,2.9-7.5,2.9-10.4,0s-7.1-2.4-9.9.5l-23.8,23.8c.8,11.4,3.1,22.4,6.8,32.7L219.4,62.6c-4.9-1.8-10.1-3.3-15.3-4.4h0Z"/>
  <path class="st0" d="M247.2,77.1l-59.3,59.3-8.4,8.6c-2.9,2.9-7.5,2.9-10.4,0s-7.1-2.4-9.9.5l-89,89c4.4,8.5,9.8,16.3,16,23.5l172.1-172.1c-3.5-3.1-7.2-6-11-8.7h-.1Z"/>
  <path class="st0" d="M278,108.3l-64.2,64.2-8.4,8.6c-2.9,2.9-7.5,2.9-10.4,0s-7.1-2.4-9.9.5l-87.7,87.7c7.1,6.3,14.8,11.7,23.2,16.2l164.9-164.9c-2.2-4.3-4.7-8.4-7.4-12.3h-.1Z"/>
  <path class="st0" d="M292.7,155.7l-5.7,5.8c-2.9,2.9-7.5,2.9-10.4,0s-7.1-2.4-9.9.5l-130.6,130.6c10.2,3.8,21.2,6.1,32.5,7l130.5-130.5c-.4-5.9-1.2-11.7-2.4-17.3l-3.9,3.9h-.1Z"/>
  <polygon class="st0" points="793.8 117.5 793.8 96.6 666 96.6 666 125.7 749.6 125.7 666.3 242.7 666.3 263.4 794.1 263.4 794.1 234.3 710.5 234.3 793.8 117.5"/>
  <rect class="st0" x="538.9" y="200.3" width="35.1" height="63.3"/>
  <rect class="st0" x="574" y="171.6" width="67.9" height="28.7"/>
  <polygon class="st0" points="538.9 171.6 574 171.6 574 125.7 649.3 125.7 649.3 96.6 538.9 96.6 538.9 171.6"/>
  <path class="st0" d="M447.8,201.4h35.8c-.2,6.6-1.7,12.5-4.6,17.4-3,5.3-7.3,9.2-13.1,12.2-5.7,3-11.7,4.4-20.4,4.4s-16.5-2.1-22.9-6.4c-6.4-4.4-11.2-10.8-14.9-18.8-3.4-8.3-5.3-17.9-5.3-29.6s1.6-21.6,5.3-29.6c3.7-8.3,8.7-14.5,15.1-18.6,6.4-4.4,14-6.4,22.5-6.4s8.7.7,12.4,1.8c3.7.9,7.1,2.8,10.1,4.8,3,2.1,5.5,4.6,7.6,7.8,2.1,3,3.7,6.7,4.8,10.6h35.8c-1.1-8.5-3.7-15.8-7.8-22.7-3.9-6.9-8.9-12.9-15.4-17.9-6.4-5-13.8-8.9-21.8-11.7-8.3-2.8-11.7-4.1-26.4-4.1s-28,3.2-39.7,10.1c-11.9,6.7-21.3,16.5-28.2,29.4-6.9,12.9-10.3,28.7-10.3,46.4s3.2,32.8,9.9,45.7c6.7,12.9,16.1,22.7,27.8,29.6,11.9,6.9,25.5,11,41.1,11s26.6-3,37.4-8.5c11-5.7,19.5-13.8,25.7-24.3,6.2-10.6,9.4-23.2,9.4-37.9v-21.1h-69.8v26.6-.2Z"/>
  <polygon class="st0" points="73.5 385.8 107.1 385.8 107.1 414 114.8 414 114.8 350.8 107.1 350.8 107.1 379 73.5 379 73.5 350.8 65.9 350.8 65.9 414 73.5 414 73.5 385.8"/>
  <path class="st0" d="M158.8,371.2c-2-1.8-4.2-3.2-6.6-4-2.4-.8-4.9-1.2-7.3-1.2-4.3,0-8,1-11.2,3.1s-5.6,5-7.4,8.7c-1.8,3.7-2.6,8-2.6,12.8s.9,9.1,2.7,12.7c1.8,3.7,4.3,6.5,7.7,8.5,3.3,2,7.3,3.1,11.8,3.1s6.1-.5,8.6-1.5c2.6-1,4.7-2.4,6.5-4.2,1.7-1.8,3-3.9,3.7-6.3l-7-2c-.6,1.6-1.5,3-2.6,4.1s-2.5,1.9-4,2.5c-1.6.6-3.3.8-5.2.8-2.9,0-5.5-.6-7.8-1.9-2.2-1.3-4-3.2-5.2-5.7-1.1-2.2-1.7-5-1.8-8.1h34.4v-3.1c0-4.4-.6-8.1-1.8-11.1s-2.8-5.5-4.8-7.3h0ZM132.5,380.2c1.1-2.3,2.7-4.1,4.8-5.6,2.1-1.4,4.6-2.1,7.5-2.1s5.3.7,7.3,2.1,3.4,3.3,4.4,5.8c.7,1.8,1.2,3.8,1.4,6.1h-27c.1-2.2.6-4.3,1.6-6.3Z"/>
  <rect class="st0" x="173" y="350.8" width="7.2" height="63.2"/>
  <path class="st0" d="M252.6,414v-31.7c0-5.6-1.4-9.7-4.1-12.3s-6.2-4-10.4-4-6.3.7-8.7,2.2-4.2,3.4-5.5,5.9h-.5c-1.2-2.5-2.8-4.5-4.9-5.9-2.1-1.4-4.7-2.1-7.8-2.1s-5.7.7-7.9,2.1-3.8,3.4-4.8,5.9h-.7v-7.5h-7v47.4h7.2v-29.6c0-2.3.5-4.4,1.5-6.1s2.3-3.2,4-4.2c1.6-1,3.4-1.5,5.3-1.5,2.8,0,5,.8,6.7,2.5s2.6,3.8,2.6,6.5v32.5h7.5v-30.9c0-3,.9-5.5,2.7-7.6,1.8-2,4.4-3,7.7-3s4.9.7,6.8,2.2c1.9,1.5,2.9,4,2.9,7.5v31.7h7.4Z"/>
  <path class="st0" d="M300.7,414v-30.1c0-4.1-.7-7.4-2-10.1-1.4-2.6-3.3-4.6-5.7-5.9-2.4-1.3-5.3-1.9-8.5-1.9s-6.7.7-8.9,2.2c-2.2,1.5-3.9,3.4-5,5.9h-.7v-23.2h-7.2v63.2h7.2v-28.5c0-2.8.5-5.1,1.6-7s2.6-3.4,4.4-4.4,4-1.5,6.4-1.5c3.4,0,6.1,1,8.1,3.1s2.9,5,2.9,8.8v29.6h7.3v-.2Z"/>
  <path class="st0" d="M348.9,403.4c1.8-3.7,2.7-7.9,2.7-12.8s-.9-9.3-2.7-12.9c-1.8-3.7-4.3-6.5-7.5-8.6s-7-3.1-11.3-3.1-8,1-11.2,3.1-5.7,4.9-7.5,8.6-2.7,8-2.7,12.9.9,9.1,2.7,12.8c1.8,3.7,4.3,6.5,7.5,8.6s7,3.1,11.2,3.1,8.1-1,11.3-3.1,5.7-4.9,7.5-8.6ZM342.8,399.4c-1,2.7-2.6,4.9-4.7,6.6s-4.8,2.5-8.1,2.5-5.9-.8-8-2.5-3.6-3.9-4.7-6.6-1.5-5.7-1.5-8.8.5-6.2,1.5-8.9c1-2.7,2.6-5,4.7-6.6,2.1-1.7,4.7-2.5,8-2.5s6,.8,8.1,2.5,3.6,3.9,4.7,6.6c1,2.7,1.5,5.7,1.5,8.9s-.5,6.1-1.5,8.8Z"/>
  <rect class="st0" x="359.5" y="350.8" width="7.2" height="63.2"/>
  <path class="st0" d="M395.9,414.3c1-.2,1.8-.4,2.5-.6l-1.5-6.5c-.6.1-1.2.2-1.7.3h-1.5c-2.2,0-3.8-.6-4.8-1.7s-1.5-2.9-1.5-5.4v-27.6h10.2v-6.2h-10.2v-11.3h-7.2v11.3h-7.1v6.2h7.1v29.6c0,3.6,1.2,6.6,3.6,8.8,2.4,2.3,5.5,3.4,9.3,3.4s2,0,2.9-.2h0Z"/>
  <polygon class="st0" points="441 407.2 414 407.2 414 406.7 440.1 372.4 440.1 366.6 404.8 366.6 404.8 373.4 430.8 373.4 430.8 373.9 403.9 408.5 403.9 414 441 414 441 407.2"/>
  <path class="st0" d="M513.2,409.4c2.3-1.8,4.1-3.9,5.7-6.5s2.5-5.4,3.1-8.7h-7.6c-.5,2.2-1.2,4.1-2.4,5.8-1.1,1.7-2.5,3.1-4.1,4.2s-3.4,2-5.3,2.6-3.9.9-6,.9c-3.8,0-7.3-1-10.4-2.9s-5.6-4.8-7.4-8.5c-1.8-3.8-2.7-8.4-2.7-13.8s.9-10.1,2.7-13.9c1.8-3.8,4.3-6.6,7.4-8.6,3.1-1.9,6.6-2.9,10.4-2.9s4.1.3,6,.9,3.7,1.4,5.3,2.6c1.6,1.1,3,2.6,4.1,4.2,1.1,1.7,1.9,3.6,2.4,5.8h7.6c-.6-3.2-1.6-6.1-3.1-8.7s-3.4-4.7-5.7-6.5-4.8-3.1-7.6-4c-2.8-.9-5.8-1.4-9-1.4-5.4,0-10.2,1.3-14.4,3.9-4.2,2.6-7.5,6.4-9.9,11.2-2.4,4.9-3.6,10.6-3.6,17.3s1.2,12.4,3.6,17.2c2.4,4.8,5.7,8.6,9.9,11.2,4.2,2.6,9,3.9,14.4,3.9s6.2-.5,9-1.4,5.3-2.3,7.6-4h0Z"/>
  <path class="st0" d="M558.7,413.5c2.6-1,4.7-2.4,6.5-4.2,1.7-1.8,3-3.9,3.7-6.3l-7-2c-.6,1.6-1.5,3-2.6,4.1s-2.5,1.9-4,2.5c-1.6.6-3.3.8-5.2.8-2.9,0-5.5-.6-7.8-1.9-2.2-1.3-4-3.2-5.2-5.7-1.1-2.2-1.7-5-1.8-8.1h34.4v-3.1c0-4.4-.6-8.1-1.8-11.1s-2.8-5.5-4.8-7.3-4.2-3.2-6.6-4c-2.4-.8-4.9-1.2-7.3-1.2-4.3,0-8,1-11.2,3.1s-5.6,5-7.4,8.7c-1.8,3.7-2.6,8-2.6,12.8s.9,9.1,2.7,12.7c1.8,3.7,4.3,6.5,7.7,8.5,3.3,2,7.3,3.1,11.8,3.1s6.1-.5,8.6-1.5h-.1ZM536.9,380.2c1.1-2.3,2.7-4.1,4.8-5.6,2.1-1.4,4.6-2.1,7.5-2.1s5.3.7,7.3,2.1,3.4,3.3,4.4,5.8c.7,1.8,1.2,3.8,1.4,6.1h-27c0-2.2.6-4.3,1.6-6.3Z"/>
  <path class="st0" d="M596.7,372.5c3.4,0,6,1.1,8,3.2,1.9,2.1,2.9,5,2.9,8.7v29.6h7.2v-30.1c0-4-.7-7.4-2-10s-3.2-4.6-5.6-5.9c-2.4-1.3-5.2-1.9-8.4-1.9s-6.5.7-8.8,2.2-3.9,3.4-5,5.8h-.7v-7.5h-7v47.4h7.2v-28.5c0-2.8.5-5.1,1.6-7s2.5-3.4,4.3-4.4,3.9-1.5,6.2-1.5h0Z"/>
  <path class="st0" d="M628.1,402.4c0,3.6,1.2,6.6,3.6,8.8,2.4,2.3,5.5,3.4,9.3,3.4s2,0,2.9-.2c1-.2,1.8-.4,2.5-.6l-1.5-6.5c-.6.1-1.2.2-1.7.3h-1.5c-2.2,0-3.8-.6-4.8-1.7s-1.5-2.9-1.5-5.4v-27.6h10.2v-6.2h-10.2v-11.3h-7.2v11.3h-7.1v6.2h7.1v29.6h0Z"/>
  <path class="st0" d="M673.2,365.9c-2.8,0-5.4.7-7.7,2.2s-3.9,3.4-4.7,5.7h-.5v-7.2h-7v47.4h7.2v-29.9c0-2.1.5-4.1,1.5-5.7,1-1.7,2.5-3,4.3-3.9,1.8-1,3.9-1.4,6.1-1.4s1.9,0,2.8.2c.9.1,1.4.2,1.7.3v-7.4h-3.8v-.3Z"/>
  <path class="st0" d="M720.4,389.7c0-4.4-.6-8.1-1.8-11.1s-2.8-5.5-4.8-7.3-4.2-3.2-6.6-4c-2.4-.8-4.9-1.2-7.3-1.2-4.3,0-8,1-11.2,3.1s-5.6,5-7.4,8.7c-1.8,3.7-2.6,8-2.6,12.8s.9,9.1,2.7,12.7c1.8,3.7,4.3,6.5,7.7,8.5,3.3,2,7.3,3.1,11.8,3.1s6.1-.5,8.6-1.5c2.6-1,4.7-2.4,6.5-4.2,1.7-1.8,3-3.9,3.7-6.3l-7-2c-.6,1.6-1.5,3-2.6,4.1s-2.5,1.9-4,2.5c-1.6.6-3.3.8-5.2.8-2.9,0-5.5-.6-7.8-1.9-2.2-1.3-4-3.2-5.2-5.7-1.1-2.2-1.7-5-1.8-8.1h34.4v-3.1h-.1ZM687.7,380.2c1.1-2.3,2.7-4.1,4.8-5.6,2.1-1.4,4.6-2.1,7.5-2.1s5.3.7,7.3,2.1,3.4,3.3,4.4,5.8c.7,1.8,1.2,3.8,1.4,6.1h-27c0-2.2.6-4.3,1.6-6.3Z"/>
  <path class="st0" d="M81.4,452c-2.2,0-4.4.5-6.4,1.4s-3.7,2.3-5,4.1c-1.3,1.8-1.9,4.1-1.9,6.8v6.5h-7.6v6.2h7.6v41.2h7.2v-41.2h10.7v-6.2h-10.7v-4.7c0-2.3.5-4.1,1.6-5.4,1.1-1.2,2.8-1.8,5.2-1.8s1.9,0,2.6.3c.6.2,1.1.3,1.5.5l2.1-6.3c-.5-.3-1.4-.5-2.5-.8s-2.6-.4-4.4-.4v-.2Z"/>
  <path class="st0" d="M121.5,473.2c-3.2-2-7-3.1-11.3-3.1s-8,1-11.2,3.1-5.7,4.9-7.5,8.6-2.7,8-2.7,12.9.9,9.1,2.7,12.8c1.8,3.7,4.3,6.5,7.5,8.6s7,3.1,11.2,3.1,8.1-1,11.3-3.1,5.7-4.9,7.5-8.6,2.7-7.9,2.7-12.8-.9-9.3-2.7-12.9c-1.8-3.7-4.3-6.5-7.5-8.6h0ZM122.9,503.6c-1,2.7-2.6,4.9-4.7,6.6s-4.8,2.5-8.1,2.5-5.9-.8-8-2.5-3.6-3.9-4.7-6.6-1.5-5.7-1.5-8.8.5-6.2,1.5-8.9c1-2.7,2.6-5,4.7-6.6,2.1-1.7,4.7-2.5,8-2.5s6,.8,8.1,2.5,3.6,3.9,4.7,6.6c1,2.7,1.5,5.7,1.5,8.9s-.5,6.1-1.5,8.8Z"/>
  <path class="st0" d="M159.5,470.1c-2.8,0-5.4.7-7.7,2.2s-3.8,3.4-4.7,5.7h-.5v-7.2h-7v47.4h7.2v-29.9c0-2.1.5-4.1,1.5-5.7s2.5-3,4.3-3.9c1.8-1,3.9-1.4,6.1-1.4s1.9,0,2.8.2c.9.1,1.4.2,1.7.3v-7.4h-3.8v-.3Z"/>
  <path class="st0" d="M218.3,493.4h16.6c0,3.7-.8,6.8-2.3,9.6-1.6,2.8-3.7,5-6.4,6.6s-5.9,2.3-9.5,2.3-7.4-1-10.6-2.9-5.6-4.8-7.5-8.5c-1.8-3.8-2.8-8.4-2.8-13.8s.9-10.1,2.7-13.9,4.3-6.6,7.3-8.6c3.1-1.9,6.5-2.9,10.2-2.9s4.4.3,6.3.9c1.9.6,3.6,1.5,5.1,2.7s2.8,2.6,3.9,4.2c1.1,1.7,2,3.5,2.6,5.6h7.9c-.6-3.1-1.6-5.8-3.2-8.3-1.5-2.5-3.4-4.7-5.7-6.5s-4.8-3.3-7.7-4.2-6-1.5-9.3-1.5c-5.4,0-10.2,1.3-14.3,3.9s-7.4,6.4-9.8,11.2c-2.4,4.9-3.5,10.6-3.5,17.3s1.2,12.4,3.5,17.2c2.4,4.8,5.7,8.6,9.9,11.2,4.2,2.6,9.1,3.9,14.7,3.9s9.4-1.1,13.3-3.2,6.9-5.1,9.1-8.9,3.3-8.3,3.3-13.5v-6.8h-24.1v6.8h.3Z"/>
  <path class="st0" d="M284.1,475.4c-2-1.8-4.2-3.2-6.6-4s-4.9-1.2-7.3-1.2c-4.3,0-8,1-11.2,3.1-3.2,2.1-5.6,5-7.4,8.7-1.8,3.7-2.6,8-2.6,12.8s.9,9.1,2.7,12.7c1.8,3.7,4.3,6.5,7.7,8.5,3.3,2,7.3,3.1,11.8,3.1s6.1-.5,8.6-1.5c2.6-1,4.7-2.4,6.5-4.2,1.7-1.8,3-3.9,3.7-6.3l-7-2c-.6,1.6-1.5,3-2.6,4.1s-2.5,1.9-4,2.5c-1.6.6-3.3.8-5.2.8-2.9,0-5.5-.6-7.8-1.9-2.2-1.3-4-3.2-5.2-5.7-1.1-2.2-1.7-5-1.8-8.1h34.4v-3.1c0-4.4-.6-8.1-1.8-11.1s-2.8-5.5-4.8-7.3h-.1ZM257.9,484.4c1.1-2.3,2.7-4.1,4.8-5.6,2.1-1.4,4.6-2.1,7.5-2.1s5.3.7,7.3,2.1,3.4,3.3,4.4,5.8c.7,1.8,1.2,3.8,1.4,6.1h-27c.1-2.2.6-4.3,1.6-6.3h0Z"/>
  <path class="st0" d="M328.9,473.2c-3.2-2-7-3.1-11.3-3.1s-8,1-11.2,3.1-5.7,4.9-7.5,8.6-2.7,8-2.7,12.9.9,9.1,2.7,12.8c1.8,3.7,4.3,6.5,7.5,8.6s7,3.1,11.2,3.1,8.1-1,11.3-3.1,5.7-4.9,7.5-8.6,2.7-7.9,2.7-12.8-.9-9.3-2.7-12.9c-1.8-3.7-4.3-6.5-7.5-8.6h0ZM330.3,503.6c-1,2.7-2.6,4.9-4.7,6.6s-4.8,2.5-8.1,2.5-5.9-.8-8-2.5-3.6-3.9-4.7-6.6-1.5-5.7-1.5-8.8.5-6.2,1.5-8.9c1-2.7,2.6-5,4.7-6.6,2.1-1.7,4.7-2.5,8-2.5s6,.8,8.1,2.5,3.6,3.9,4.7,6.6c1,2.7,1.5,5.7,1.5,8.9s-.5,6.1-1.5,8.8Z"/>
  <path class="st0" d="M368.8,492.1l-7-1.7c-2.8-.7-4.9-1.6-6.2-2.6-1.3-1.1-2-2.5-2-4.3s1-3.7,2.9-5,4.3-2,7.2-2,5.5.7,7.1,2.2,2.6,3,3.2,4.6l6.5-1.8c-1.1-3.4-3-6.1-5.7-8.2s-6.4-3.1-11.1-3.1-6.3.6-8.9,1.8-4.7,2.8-6.2,4.9-2.3,4.4-2.3,7.1,1,5.9,3.1,8.1,5.2,3.7,9.6,4.8l7.9,1.9c4.7,1.1,7,3.4,7,6.7s-1,3.7-3,5.2-4.7,2.2-8.1,2.2-5.4-.6-7.3-1.9c-1.9-1.3-3.1-3.2-3.8-5.7l-6.9,1.7c.8,4,2.8,7.1,6,9.2,3.1,2.1,7.1,3.2,12,3.2s6.9-.6,9.7-1.9c2.8-1.2,4.9-2.9,6.5-5.1,1.6-2.1,2.3-4.6,2.3-7.3s-1-6-3.1-8.1-5.2-3.7-9.4-4.7v-.2Z"/>
  <path class="st0" d="M400.9,478.9c2.1-1.5,4.6-2.2,7.4-2.2s4,.4,5.6,1.2c1.6.8,2.8,1.8,3.8,3.1,1,1.3,1.6,2.6,2,4.1h7.3c-.4-3-1.4-5.6-3.2-7.8-1.7-2.2-3.9-4-6.6-5.2s-5.7-1.8-9-1.8-8,1-11.2,3.1-5.7,5-7.5,8.7-2.7,7.9-2.7,12.8.9,8.9,2.6,12.6,4.2,6.6,7.4,8.7,7,3.2,11.4,3.2,6.6-.7,9.2-2,4.8-3.1,6.4-5.3,2.6-4.7,3-7.5h-7.3c-.7,2.6-2,4.6-4,6.1-2,1.5-4.5,2.2-7.3,2.2s-5.3-.7-7.5-2.2c-2.1-1.5-3.8-3.6-4.9-6.3-1.2-2.7-1.7-5.9-1.7-9.6s.6-6.7,1.8-9.4c1.2-2.7,2.8-4.7,5-6.2v-.3Z"/>
  <rect class="st0" x="434.7" y="470.8" width="7.2" height="47.4"/>
  <path class="st0" d="M438.4,453c-1.4,0-2.6.5-3.6,1.4-1,1-1.5,2.1-1.5,3.5s.5,2.5,1.5,3.5,2.2,1.4,3.6,1.4,2.6-.5,3.6-1.4c1-1,1.5-2.1,1.5-3.5s-.5-2.5-1.5-3.5-2.2-1.4-3.6-1.4Z"/>
  <path class="st0" d="M485,475.4c-2-1.8-4.2-3.2-6.6-4s-4.9-1.2-7.3-1.2c-4.3,0-8,1-11.2,3.1s-5.6,5-7.4,8.7-2.6,8-2.6,12.8.9,9.1,2.7,12.7c1.8,3.7,4.3,6.5,7.7,8.5,3.3,2,7.3,3.1,11.8,3.1s6.1-.5,8.6-1.5c2.6-1,4.7-2.4,6.5-4.2,1.7-1.8,3-3.9,3.7-6.3l-7-2c-.6,1.6-1.5,3-2.6,4.1s-2.5,1.9-4,2.5c-1.6.6-3.3.8-5.2.8-2.9,0-5.5-.6-7.8-1.9-2.2-1.3-4-3.2-5.2-5.7-1.1-2.2-1.7-5-1.8-8.1h34.4v-3.1c0-4.4-.6-8.1-1.8-11.1s-2.8-5.5-4.8-7.3h-.1ZM458.8,484.4c1.1-2.3,2.7-4.1,4.8-5.6,2.1-1.4,4.6-2.1,7.5-2.1s5.3.7,7.3,2.1,3.4,3.3,4.4,5.8c.7,1.8,1.2,3.8,1.4,6.1h-27c.1-2.2.6-4.3,1.6-6.3h0Z"/>
  <path class="st0" d="M529.1,472.1c-2.4-1.3-5.2-1.9-8.4-1.9s-6.5.7-8.8,2.2-3.9,3.4-5,5.8h-.7v-7.5h-7v47.4h7.2v-28.5c0-2.8.5-5.1,1.6-7s2.5-3.4,4.3-4.4c1.8-1,3.9-1.5,6.2-1.5,3.4,0,6,1.1,8,3.2,1.9,2.1,2.9,5,2.9,8.7v29.6h7.2v-30.1c0-4-.7-7.4-2-10s-3.2-4.6-5.6-5.9h0Z"/>
  <path class="st0" d="M558.7,478.9c2.1-1.5,4.6-2.2,7.4-2.2s4,.4,5.6,1.2c1.6.8,2.8,1.8,3.8,3.1,1,1.3,1.6,2.6,2,4.1h7.3c-.4-3-1.4-5.6-3.2-7.8-1.7-2.2-3.9-4-6.6-5.2-2.7-1.2-5.7-1.8-9-1.8s-8,1-11.2,3.1-5.7,5-7.5,8.7-2.7,7.9-2.7,12.8.9,8.9,2.6,12.6c1.7,3.7,4.2,6.6,7.4,8.7s7,3.2,11.4,3.2,6.6-.7,9.2-2c2.6-1.3,4.8-3.1,6.4-5.3,1.6-2.2,2.6-4.7,3-7.5h-7.3c-.7,2.6-2,4.6-4,6.1-2,1.5-4.5,2.2-7.3,2.2s-5.3-.7-7.5-2.2c-2.1-1.5-3.8-3.6-4.9-6.3-1.2-2.7-1.7-5.9-1.7-9.6s.6-6.7,1.8-9.4c1.2-2.7,2.8-4.7,5-6.2v-.3Z"/>
  <path class="st0" d="M625.3,475.4c-2-1.8-4.2-3.2-6.6-4-2.4-.8-4.9-1.2-7.3-1.2-4.3,0-8,1-11.2,3.1s-5.6,5-7.4,8.7c-1.8,3.7-2.6,8-2.6,12.8s.9,9.1,2.7,12.7c1.8,3.7,4.3,6.5,7.7,8.5,3.3,2,7.3,3.1,11.8,3.1s6.1-.5,8.6-1.5c2.6-1,4.7-2.4,6.5-4.2,1.7-1.8,3-3.9,3.7-6.3l-7-2c-.6,1.6-1.5,3-2.6,4.1s-2.5,1.9-4,2.5c-1.6.6-3.3.8-5.2.8-2.9,0-5.5-.6-7.8-1.9-2.2-1.3-4-3.2-5.2-5.7-1.1-2.2-1.7-5-1.8-8.1h34.4v-3.1c0-4.4-.6-8.1-1.8-11.1s-2.8-5.5-4.8-7.3h-.1ZM599.1,484.4c1.1-2.3,2.7-4.1,4.8-5.6,2.1-1.4,4.6-2.1,7.5-2.1s5.3.7,7.3,2.1,3.4,3.3,4.4,5.8c.7,1.8,1.2,3.8,1.4,6.1h-27c0-2.2.6-4.3,1.6-6.3Z"/>
  <path class="st0" d="M661.4,492.1l-7-1.7c-2.8-.7-4.9-1.6-6.2-2.6-1.3-1.1-2-2.5-2-4.3s1-3.7,2.9-5,4.3-2,7.2-2,5.5.7,7.1,2.2,2.6,3,3.2,4.6l6.5-1.8c-1.1-3.4-3-6.1-5.7-8.2s-6.4-3.1-11.1-3.1-6.3.6-8.9,1.8-4.7,2.8-6.2,4.9-2.3,4.4-2.3,7.1,1,5.9,3.1,8.1,5.2,3.7,9.6,4.8l7.9,1.9c4.7,1.1,7,3.4,7,6.7s-1,3.7-3,5.2-4.7,2.2-8.1,2.2-5.4-.6-7.3-1.9-3.1-3.2-3.8-5.7l-6.9,1.7c.8,4,2.8,7.1,6,9.2,3.1,2.1,7.1,3.2,12,3.2s6.9-.6,9.7-1.9c2.8-1.2,4.9-2.9,6.5-5.1,1.6-2.1,2.3-4.6,2.3-7.3s-1-6-3.1-8.1-5.2-3.7-9.4-4.7v-.2Z"/>
</svg>