<?xml version="1.0" encoding="UTF-8" standalone="no"?>
<svg
   xmlns:dc="http://purl.org/dc/elements/1.1/"
   xmlns:cc="http://creativecommons.org/ns#"
   xmlns:rdf="http://www.w3.org/1999/02/22-rdf-syntax-ns#"
   xmlns:svg="http://www.w3.org/2000/svg"
   xmlns="http://www.w3.org/2000/svg"
   xmlns:sodipodi="http://sodipodi.sourceforge.net/DTD/sodipodi-0.dtd"
   xmlns:inkscape="http://www.inkscape.org/namespaces/inkscape"
   height="24"
   width="24"
   version="1.1"
   id="svg3596"
   sodipodi:docname="mActionAddOgrLayer.svg"
   inkscape:version="0.92.2 (5c3e80d, 2017-08-06)">
  <metadata
     id="metadata3602">
    <rdf:RDF>
      <cc:Work
         rdf:about="">
        <dc:format>image/svg+xml</dc:format>
        <dc:type
           rdf:resource="http://purl.org/dc/dcmitype/StillImage" />
        <dc:title></dc:title>
      </cc:Work>
    </rdf:RDF>
  </metadata>
  <defs
     id="defs3600" />
  <sodipodi:namedview
     pagecolor="#ffffff"
     bordercolor="#666666"
     borderopacity="1"
     objecttolerance="10"
     gridtolerance="10"
     guidetolerance="10"
     inkscape:pageopacity="0"
     inkscape:pageshadow="2"
     inkscape:window-width="640"
     inkscape:window-height="480"
     id="namedview3598"
     showgrid="false"
     inkscape:zoom="35.333333"
     inkscape:cx="12"
     inkscape:cy="12"
     inkscape:window-x="0"
     inkscape:window-y="0"
     inkscape:window-maximized="1"
     inkscape:current-layer="svg3596" />
  <path
     d="M2.575 2.575l6.351 15.296 6.985-15.153 5.744-.022"
     overflow="visible"
     fill="none"
     stroke="#2b3b4d"
     stroke-linecap="round"
     stroke-linejoin="round"
     stroke-width="1.5"
     id="path3584" />
  <path
     d="M4.257 2.575a1.681 1.681 0 1 1-3.363 0 1.681 1.681 0 1 1 3.363 0zm6.372 14.495a1.681 1.681 0 1 1-3.363 0 1.681 1.681 0 1 1 3.363 0zm6.786-14.388a1.681 1.681 0 1 1-3.363 0 1.681 1.681 0 1 1 3.363 0zm5.921.014a1.681 1.681 0 1 1-3.363 0 1.681 1.681 0 1 1 3.363 0z"
     overflow="visible"
     fill="#eeeeec"
     fill-rule="evenodd"
     stroke="#2b3b4d"
     stroke-linecap="round"
     stroke-linejoin="round"
     id="path3586" />
  <g
     transform="translate(1.846 1.846) scale(.6923)"
     id="g3594">
    <rect
       y="19"
       x="19"
       width="13"
       ry="2.615"
       rx="2.615"
       height="13"
       fill="#5a8c5a"
       id="rect3588" />
    <path
       d="M21.6 25.5h7.8m-3.9 3.9v-7.8"
       overflow="visible"
       fill="#fff"
       fill-rule="evenodd"
       stroke="#fff"
       stroke-width="2.6"
       stroke-linecap="round"
       stroke-linejoin="round"
       id="path3590" />
    <path
       d="M20.3 25.5h10.4v-2.6c0-2.6-.65-2.6-5.2-2.6s-5.2 0-5.2 2.6v2.6z"
       opacity=".3"
       fill="#fcffff"
       fill-rule="evenodd"
       id="path3592" />
  </g>
</svg>
