<?xml version="1.0" encoding="UTF-8" standalone="no"?>
<svg
   xmlns:dc="http://purl.org/dc/elements/1.1/"
   xmlns:cc="http://creativecommons.org/ns#"
   xmlns:rdf="http://www.w3.org/1999/02/22-rdf-syntax-ns#"
   xmlns:svg="http://www.w3.org/2000/svg"
   xmlns="http://www.w3.org/2000/svg"
   xmlns:sodipodi="http://sodipodi.sourceforge.net/DTD/sodipodi-0.dtd"
   xmlns:inkscape="http://www.inkscape.org/namespaces/inkscape"
   version="1.1"
   id="Capa_1"
   x="0px"
   y="0px"
   viewBox="0 0 300 300"
   xml:space="preserve"
   inkscape:version="0.92.2 5c3e80d, 2017-08-06"
   sodipodi:docname="mIconTemporalProfile.svg"
   width="300"
   height="300"
   inkscape:export-filename="D:\Repositories\QGIS_Plugins\enmap-box\enmapbox\gui\ui\icons\speclib_save.png"
   inkscape:export-xdpi="90"
   inkscape:export-ydpi="90"><metadata
     id="metadata65"><rdf:RDF><cc:Work
         rdf:about=""><dc:format>image/svg+xml</dc:format><dc:type
           rdf:resource="http://purl.org/dc/dcmitype/StillImage" /><dc:title /></cc:Work></rdf:RDF></metadata><defs
     id="defs63"><marker
       inkscape:stockid="TriangleOutM"
       orient="auto"
       refY="0"
       refX="0"
       id="TriangleOutM"
       style="overflow:visible"
       inkscape:isstock="true"><path
         id="path4411"
         d="M 5.77,0 -2.88,5 V -5 Z"
         style="fill:#4a4135;fill-opacity:1;fill-rule:evenodd;stroke:#4a4135;stroke-width:1.00000003pt;stroke-opacity:1"
         transform="scale(0.4)"
         inkscape:connector-curvature="0" /></marker><marker
       inkscape:stockid="Arrow2Send"
       orient="auto"
       refY="0"
       refX="0"
       id="Arrow2Send"
       style="overflow:visible"
       inkscape:isstock="true"><path
         id="path4299"
         style="fill:#000000;fill-opacity:1;fill-rule:evenodd;stroke:#000000;stroke-width:0.625;stroke-linejoin:round;stroke-opacity:1"
         d="M 8.7185878,4.0337352 -2.2072895,0.01601326 8.7185884,-4.0017078 c -1.7454984,2.3720609 -1.7354408,5.6174519 -6e-7,8.035443 z"
         transform="matrix(-0.3,0,0,-0.3,0.69,0)"
         inkscape:connector-curvature="0" /></marker><marker
       inkscape:stockid="Arrow1Send"
       orient="auto"
       refY="0"
       refX="0"
       id="Arrow1Send"
       style="overflow:visible"
       inkscape:isstock="true"><path
         id="path4281"
         d="M 0,0 5,-5 -12.5,0 5,5 Z"
         style="fill:#000000;fill-opacity:1;fill-rule:evenodd;stroke:#000000;stroke-width:1.00000003pt;stroke-opacity:1"
         transform="matrix(-0.2,0,0,-0.2,-1.2,0)"
         inkscape:connector-curvature="0" /></marker><marker
       inkscape:stockid="TriangleOutL"
       orient="auto"
       refY="0"
       refX="0"
       id="TriangleOutL"
       style="overflow:visible"
       inkscape:isstock="true"><path
         id="path4408"
         d="M 5.77,0 -2.88,5 V -5 Z"
         style="fill:#000000;fill-opacity:1;fill-rule:evenodd;stroke:#000000;stroke-width:1.00000003pt;stroke-opacity:1"
         transform="scale(0.8)"
         inkscape:connector-curvature="0" /></marker><marker
       inkscape:stockid="Arrow1Lend"
       orient="auto"
       refY="0"
       refX="0"
       id="Arrow1Lend"
       style="overflow:visible"
       inkscape:isstock="true"><path
         id="path4269"
         d="M 0,0 5,-5 -12.5,0 5,5 Z"
         style="fill:#000000;fill-opacity:1;fill-rule:evenodd;stroke:#000000;stroke-width:1.00000003pt;stroke-opacity:1"
         transform="matrix(-0.8,0,0,-0.8,-10,0)"
         inkscape:connector-curvature="0" /></marker><inkscape:path-effect
       is_visible="true"
       id="path-effect5756"
       effect="spiro" /></defs><sodipodi:namedview
     pagecolor="#ffffff"
     bordercolor="#666666"
     borderopacity="1"
     objecttolerance="10"
     gridtolerance="10"
     guidetolerance="10"
     inkscape:pageopacity="0"
     inkscape:pageshadow="2"
     inkscape:window-width="1280"
     inkscape:window-height="756"
     id="namedview61"
     showgrid="false"
     inkscape:zoom="1.81"
     inkscape:cx="135.9116"
     inkscape:cy="150"
     inkscape:window-x="32"
     inkscape:window-y="0"
     inkscape:window-maximized="0"
     inkscape:current-layer="Capa_1" /><g
     id="g1752"
     transform="matrix(3.3806955,0,0,3.3806955,228.80341,-216.57917)"><circle
       id="circle3"
       r="16.422657"
       cy="135.06622"
       cx="-50.39016"
       stroke-miterlimit="10"
       style="fill:#6d97c4;fill-opacity:1;stroke:#445e75;stroke-width:0.57265699;stroke-miterlimit:10;stroke-opacity:1" /><path
       id="path5"
       d="m -63.691263,138.04289 c 0.419185,-4.8212 1.360633,-7.71369 4.354483,-10.70754 3.233221,-3.23322 6.227645,-4.73358 11.885496,-6.02092 2.779677,-0.63221 -2.035223,-2.72813 -8.698087,-0.23536 -3.579107,1.33887 -7.212042,4.83323 -8.486777,9.92529 -1.544455,6.16523 0.753044,9.24612 0.944885,7.03853 z"
       inkscape:connector-curvature="0"
       style="opacity:0.3;fill:#ffffff" /><path
       style="fill:none;fill-rule:evenodd;stroke:#ffffff;stroke-width:5.78518581;stroke-linecap:round;stroke-linejoin:miter;stroke-miterlimit:4;stroke-dasharray:none;stroke-opacity:1"
       d="m -42.821085,139.1308 h -6.744387 l -8.393018,-9.29226"
       id="path8235"
       inkscape:connector-curvature="0"
       sodipodi:nodetypes="ccc" /></g><g
     id="g31"
     transform="translate(0,247)" /><g
     id="g33"
     transform="translate(0,247)" /><g
     id="g35"
     transform="translate(0,247)" /><g
     id="g37"
     transform="translate(0,247)" /><g
     id="g39"
     transform="translate(0,247)" /><g
     id="g41"
     transform="translate(0,247)" /><g
     id="g43"
     transform="translate(0,247)" /><g
     id="g45"
     transform="translate(0,247)" /><g
     id="g47"
     transform="translate(0,247)" /><g
     id="g49"
     transform="translate(0,247)" /><g
     id="g51"
     transform="translate(0,247)" /><g
     id="g53"
     transform="translate(0,247)" /><g
     id="g55"
     transform="translate(0,247)" /><g
     id="g57"
     transform="translate(0,247)" /><g
     id="g59"
     transform="translate(0,247)" /><path
     sodipodi:nodetypes="csacassc"
     inkscape:original-d="m 13.674493,92.30167 c 4.77064,-18.1575 19.11628,-27.65443 28.135147,-29.28955 23.596028,-4.27796 36.848248,38.84636 60.82512,38.41831 23.04906,-0.41148 28.67581,-43.45306 57.11594,-38.9952 21.43068,4.18802 22.10362,46.99831 40.92506,63.89346 7.95302,7.13906 19.8595,25.67705 28.70153,14.2889 9.37837,-12.07896 18.05826,-26.9783 27.03017,-40.50552 9.69496,-14.61737 13.40772,-25.18092 38.6185,-19.8895"
     inkscape:path-effect="#path-effect5756"
     inkscape:connector-curvature="0"
     id="path5754"
     d="M 13.674493,92.30167 C 12.254091,84.5351 14.776404,76.150191 20.24595,70.456227 25.715496,64.762262 33.992259,61.905 41.80964,63.01212 c 6.117749,0.866413 11.731694,3.981602 16.526903,7.878202 4.795209,3.896601 8.879934,8.578105 13.065718,13.123073 4.185784,4.544969 8.546128,9.017458 13.737712,12.367829 5.191584,3.35037 11.334717,5.529896 17.494787,5.049206 5.92991,-0.46273 11.45947,-3.350054 16.05995,-7.120148 4.60047,-3.770093 8.3945,-8.410563 12.2005,-12.981376 3.80599,-4.570813 7.69837,-9.144845 12.44184,-12.733365 4.74347,-3.588519 10.46571,-6.159378 16.41365,-6.160311 6.75879,-0.0011 13.2341,3.360616 17.97054,8.18217 4.73644,4.821555 7.88575,10.999061 10.14264,17.369909 4.51378,12.741691 5.81956,26.772781 12.81188,38.341381 2.97504,4.92212 6.99874,9.31073 12.03669,12.08509 5.03796,2.77437 11.14545,3.82073 16.66484,2.20381 4.02607,-1.17945 7.57674,-3.70407 10.39302,-6.81355 2.81629,-3.10948 4.93768,-6.79092 6.68471,-10.60514 3.49406,-7.62842 5.58945,-15.91985 9.95244,-23.08683 3.96017,-6.505286 9.74146,-11.888703 16.51214,-15.375772 6.77067,-3.48707 14.51063,-5.067431 22.10636,-4.513728"
     style="fill:none;fill-rule:evenodd;stroke:#666666;stroke-width:16.63851929;stroke-linecap:butt;stroke-linejoin:miter;stroke-miterlimit:4;stroke-dasharray:none;stroke-opacity:1" /><path
     inkscape:connector-curvature="0"
     id="path827"
     d="m 259.83395,196.37039 -141.92832,-77.67263 60.94316,151.36882 24.26463,-39.29874 47.97695,52.45404 18.17016,-17.70698 -49.05006,-51.95053 z"
     style="fill:#ffffff;fill-opacity:1;fill-rule:evenodd;stroke:#000000;stroke-width:7.63374996;stroke-linecap:round;stroke-linejoin:round;stroke-miterlimit:4;stroke-dasharray:none;stroke-opacity:1" /></svg>