<?xml version="1.0" encoding="UTF-8" standalone="no"?>
<svg
   xmlns:dc="http://purl.org/dc/elements/1.1/"
   xmlns:cc="http://creativecommons.org/ns#"
   xmlns:rdf="http://www.w3.org/1999/02/22-rdf-syntax-ns#"
   xmlns:svg="http://www.w3.org/2000/svg"
   xmlns="http://www.w3.org/2000/svg"
   xmlns:sodipodi="http://sodipodi.sourceforge.net/DTD/sodipodi-0.dtd"
   xmlns:inkscape="http://www.inkscape.org/namespaces/inkscape"
   enable-background="new"
   height="6.7733335mm"
   viewBox="0 0 24.000001 24.000001"
   width="6.7733335mm"
   id="svg3336"
   version="1.1"
   inkscape:version="0.91 r13725"
   sodipodi:docname="remove_class.svg">
  <metadata
     id="metadata3367">
    <rdf:RDF>
      <cc:Work
         rdf:about="">
        <dc:format>image/svg+xml</dc:format>
        <dc:type
           rdf:resource="http://purl.org/dc/dcmitype/StillImage" />
        <dc:title></dc:title>
      </cc:Work>
    </rdf:RDF>
  </metadata>
  <defs
     id="defs3365" />
  <sodipodi:namedview
     pagecolor="#ffffff"
     bordercolor="#666666"
     borderopacity="1"
     objecttolerance="10"
     gridtolerance="10"
     guidetolerance="10"
     inkscape:pageopacity="0"
     inkscape:pageshadow="2"
     inkscape:window-width="1280"
     inkscape:window-height="962"
     id="namedview3363"
     showgrid="false"
     inkscape:zoom="47.847557"
     inkscape:cx="12.069256"
     inkscape:cy="11.445956"
     inkscape:window-x="-8"
     inkscape:window-y="-8"
     inkscape:window-maximized="1"
     inkscape:current-layer="svg3336" />
  <filter
     id="a"
     color-interpolation-filters="sRGB">
    <feBlend
       in2="BackgroundImage"
       mode="multiply"
       id="feBlend3339" />
  </filter>
  <path
     d="m21.594458 12.136429c-.000001 5.638195-4.061318 9.69969-9.699514 9.69969-5.6381954-.000001-9.6997076-4.061495-9.6997082-9.69969.0000002-5.6381957 4.0614155-9.6996904 9.6996112-9.6996907 5.638196 0 9.699611 4.0614943 9.699611 9.6996907z"
     fill="#f0f0a0"
     filter="url(#a)"
     transform="matrix(.97942076 0 0 .97941278 .34994064 .11342731)"
     id="path3341" />
  <path
     d="m12.400391 7.0410156c-1.067742 0-2.019256.2125535-2.8476566.6386719-.8227386.4213218-1.4641488 1.0151176-1.9160156 1.7773437-.4519996.7624508-.6757813 1.6359388-.6757813 2.6132808 0 1.588784.4767195 2.859002 1.4335937 3.78711v.002c.9626286.923991 2.2976828 1.382813 3.9824218 1.382813.671935 0 1.279999-.0841 1.826172-.253907.54523-.169517 1.013731-.411804 1.400391-.726562.383198-.311943.702221-.666592.955078-1.0625.252107-.399326.451255-.843117.597656-1.332031l-.0957-.128907h-1.851563l-.09961.08594c-.06716.465369-.364977.86727-.919922 1.216797-.549817.344663-1.159206.517578-1.835937.517578-.642506 0-1.213788-.151844-1.722657-.457032-.509941-.305831-.9061958-.720898-1.1914059-1.25-.2851757-.53341-.4277343-1.127295-.4277343-1.787109 0-1.005041.2971955-1.803492.890625-2.4179686.5970382-.6130619 1.4113462-.921875 2.4667972-.921875.656175 0 1.203226.1231452 1.648437.3652344l.002.00195c.451201.2426505.74655.5658161.902344.9785152l.09375.06445h1.851563l.0957-.13086c-.284193-.8967402-.827617-1.6189724-1.62114-2.1562918-.795674-.5387749-1.779004-.8066406-2.941406-.8066406z"
     fill="#bebe00"
     overflow="visible"
     id="path3343" />
  <path
     d="m12 2.5c-4.965829.0000003-8.6725502 3.220995-9.3710938 7.884766a9.0156254 9.0156254 0 0 0 4.9707032 1.5 9.0156254 9.0156254 0 0 0  8.9804686-8.3242191c-1.334596-.6805593-2.883257-1.0605469-4.580078-1.0605469z"
     fill="#f6f6c3"
     id="path3345" />
  <path
     d="m21.500001 12.000001c-.000001 5.52212-3.977739 9.5-9.499905 9.5-5.5221659-.000001-9.5000953-3.97788-9.5000958-9.5.0000002-5.5221209 3.9778346-9.5000008 9.5000008-9.5000011 5.522166 0 9.5 3.9778795 9.5 9.5000011z"
     fill="none"
     stroke="#bebe00"
     stroke-miterlimit="0"
     stroke-width="1.00000012"
     id="path3347" />
  <rect
     style="fill:#d01810;fill-opacity:1"
     id="rect3351"
     y="14.000002"
     x="14.000001"
     width="10.000001"
     ry="2.0114901"
     rx="2.0114901"
     height="10.000001" />
  <path
     inkscape:connector-curvature="0"
     id="path3353"
     style="overflow:visible;fill:#ffffff;fill-rule:evenodd;stroke:#ffffff;stroke-width:2;stroke-linecap:round;stroke-linejoin:round"
     d="m 16.878681,16.87868 4.24264,4.242641" />
  <path
     inkscape:connector-curvature="0"
     id="path3355"
     style="overflow:visible;fill:#ffffff;fill-rule:evenodd;stroke:#ffffff;stroke-width:2;stroke-linecap:round;stroke-linejoin:round"
     d="m 16.878681,21.121322 4.24264,-4.24264" />
  <path
     style="opacity:0.3;fill:#fcffff;fill-rule:evenodd"
     inkscape:connector-curvature="0"
     id="path3357"
     d="m 15.000001,19.000001 8,0 c 0,0 0,0 0,-2 0,-1.999999 -0.5,-1.999999 -4,-1.999999 -3.5,0 -4,0 -4,1.999999 0,2 0,2 0,2 z" />
  <path
     d="m12.400391 7.0410156c-1.067742 0-2.019256.2125535-2.8476566.6386719-.8227386.4213218-1.4641489 1.0151177-1.9160156 1.7773437-.4182465.7055148-.6311604 1.5104218-.6621094 2.4003908a9.0156249 9.0156249 0 0 0  .625.027344 9.0156249 9.0156249 0 0 0  1.4355468-.128907c.0572026-.857066.3377865-1.561197.8671876-2.1093746.5970382-.6130619 1.4113462-.921875 2.4667972-.921875.656175 0 1.203226.1231452 1.648437.3652344l.001953.0019531c.021361.0114873.037931.0252602.058594.0371093a9.0156249 9.0156249 0 0 0 1.089844-1.3789062c-.764879-.4668801-1.685298-.7089844-2.767578-.7089844z"
     fill="none"
     overflow="visible"
     id="path3359" />
  <path
     d="m12.400391 7.0410156c-1.067742 0-2.019256.2125535-2.8476566.6386719-.8227386.4213218-1.4641489 1.0151177-1.9160156 1.7773437-.4182465.7055148-.6311604 1.5104218-.6621094 2.4003908a9.0156249 9.0156249 0 0 0  .625.027344 9.0156249 9.0156249 0 0 0  1.4355468-.128907c.0572026-.857066.3377865-1.561197.8671876-2.1093746.5970382-.6130619 1.4113462-.921875 2.4667972-.921875.656175 0 1.203226.1231452 1.648437.3652344l.001953.0019531c.021361.0114873.037931.0252602.058594.0371093a9.0156249 9.0156249 0 0 0 1.089844-1.3789062c-.764879-.4668801-1.685298-.7089844-2.767578-.7089844z"
     fill="#d6d65f"
     id="path3361" />
</svg>
