<?xml version="1.0" encoding="UTF-8" standalone="no"?>
<svg
   xmlns:dc="http://purl.org/dc/elements/1.1/"
   xmlns:cc="http://creativecommons.org/ns#"
   xmlns:rdf="http://www.w3.org/1999/02/22-rdf-syntax-ns#"
   xmlns:svg="http://www.w3.org/2000/svg"
   xmlns="http://www.w3.org/2000/svg"
   xmlns:sodipodi="http://sodipodi.sourceforge.net/DTD/sodipodi-0.dtd"
   xmlns:inkscape="http://www.inkscape.org/namespaces/inkscape"
   height="19.708"
   width="21.906"
   version="1.1"
   id="svg8"
   sodipodi:docname="downloadLocation.svg"
   inkscape:version="0.92.5 (2060ec1f9f, 2020-04-08)">
  <metadata
     id="metadata14">
    <rdf:RDF>
      <cc:Work
         rdf:about="">
        <dc:format>image/svg+xml</dc:format>
        <dc:type
           rdf:resource="http://purl.org/dc/dcmitype/StillImage" />
        <dc:title />
      </cc:Work>
    </rdf:RDF>
  </metadata>
  <defs
     id="defs12" />
  <sodipodi:namedview
     pagecolor="#ffffff"
     bordercolor="#666666"
     borderopacity="1"
     objecttolerance="10"
     gridtolerance="10"
     guidetolerance="10"
     inkscape:pageopacity="0"
     inkscape:pageshadow="2"
     inkscape:window-width="2341"
     inkscape:window-height="1368"
     id="namedview10"
     showgrid="false"
     inkscape:zoom="1.4968541"
     inkscape:cx="-247.61617"
     inkscape:cy="72.441004"
     inkscape:window-x="1267"
     inkscape:window-y="0"
     inkscape:window-maximized="0"
     inkscape:current-layer="svg8" />
  <g
     id="g6"
     transform="matrix(0.63744426,0,0,0.63744426,-0.01812779,-0.01812874)"
     style="fill:#7c7c7c;stroke:#f7f7f7;stroke-width:0.60000002">
    <path
       d="M 9.768,0.25 A 5.005,5.005 0 0 0 4.788,4.756 L 4.762,4.754 A 2.826,2.826 0 0 0 1.937,7.479 C 0.958,7.798 0.25,8.69 0.25,9.775 c 0,1.351 1.096,2.418 2.447,2.418 H 8.834 V 10.178 A 2.148,2.148 0 0 1 9.426,8.695 C 9.62,8.489 9.858,8.32 10.113,8.205 l 0.03,-0.014 0.03,-0.011 c 0.251,-0.096 0.516,-0.139 0.774,-0.139 0.258,0 0.524,0.043 0.774,0.139 l 0.031,0.011 0.03,0.014 c 0.254,0.115 0.492,0.284 0.685,0.488 0.175,0.186 0.322,0.406 0.428,0.643 l 0.002,0.002 c 0.118,0.266 0.175,0.559 0.175,0.84 v 2.015 h 6.138 c 1.351,0 2.447,-1.067 2.447,-2.418 0,-1.18 -0.837,-2.136 -1.949,-2.367 A 2.827,2.827 0 0 0 17.663,5.449 2.828,2.828 0 0 0 13.927,2.467 5,5 0 0 0 9.768,0.25 Z"
       id="path2"
       inkscape:connector-curvature="0" />
    <path
       d="m 11.337,19.388 a 0.863,0.863 0 0 1 -0.684,0 1.282,1.282 0 0 1 -0.3,-0.208 L 7.443,16.206 A 0.971,0.971 0 0 1 7.248,15.909 0.954,0.954 0 0 1 7.18,15.547 0.92,0.92 0 0 1 7.442,14.898 c 0.097,-0.093 0.197,-0.162 0.3,-0.208 a 0.82,0.82 0 0 1 0.34,-0.07 c 0.13,0 0.246,0.023 0.35,0.07 a 0.988,0.988 0 0 1 0.3,0.208 l 1.359,1.378 V 10.4 c 0,-0.126 0.022,-0.243 0.067,-0.352 a 0.972,0.972 0 0 1 0.495,-0.51 0.946,0.946 0 0 1 0.34,-0.06 c 0.123,0 0.236,0.02 0.34,0.06 a 0.943,0.943 0 0 1 0.3,0.213 c 0.084,0.089 0.15,0.188 0.199,0.297 0.049,0.109 0.073,0.226 0.073,0.352 v 5.875 l 1.348,-1.378 a 0.89,0.89 0 0 1 1.29,0 c 0.085,0.086 0.151,0.183 0.2,0.292 a 0.96,0.96 0 0 1 0.005,0.719 1.138,1.138 0 0 1 -0.204,0.297 l -2.91,2.974 a 0.937,0.937 0 0 1 -0.297,0.208 z"
       id="path4"
       inkscape:connector-curvature="0" />
  </g>
  <g
     transform="matrix(0.10839717,0,0,0.10839717,11.905588,6.1990926)"
     id="g16">
    <path
       style="fill:#1a73e8;stroke-width:0.87259245"
       inkscape:connector-curvature="0"
       id="path6432"
       d="M 58.530065,8.788463 C 54.690659,7.566834 50.502215,6.86876 46.226512,6.86876 c -12.303554,0 -23.385478,5.584592 -30.802514,14.397775 l 19.022516,15.968442 z" />
    <path
       style="fill:#ea4335;stroke-width:0.87259245"
       inkscape:connector-curvature="0"
       id="path6434"
       d="M 15.423998,21.266535 C 9.577629,28.247275 6,37.322236 6,47.095272 6,54.686826 7.4834072,60.794973 10.013925,66.292306 L 34.446514,37.234977 Z" />
    <path
       style="fill:#4285f4;stroke-width:0.87259245"
       inkscape:connector-curvature="0"
       id="path6436"
       d="m 46.313771,31.737645 c 8.551406,0 15.444886,6.89348 15.444886,15.444886 0,3.752148 -1.396148,7.242517 -3.664888,9.947554 0,0 12.129035,-14.485035 23.996292,-28.533773 C 77.203544,19.172314 68.739397,12.017055 58.530065,8.788463 L 34.446514,37.234977 c 2.879555,-3.315851 7.067999,-5.497332 11.867257,-5.497332" />
    <path
       style="fill:#fbbc04;stroke-width:0.87259245"
       inkscape:connector-curvature="0"
       id="path6438"
       d="m 46.313771,62.540158 c -8.551406,0 -15.444886,-6.89348 -15.444886,-15.444886 0,-3.752148 1.308888,-7.242517 3.577629,-9.860295 L 10.013925,66.292306 c 4.188444,9.24948 11.169184,16.753775 18.324442,26.090514 L 58.093769,57.042826 c -2.879555,3.40311 -7.067999,5.497332 -11.779998,5.497332" />
    <path
       style="fill:#34a853;stroke-width:0.87259245"
       inkscape:connector-curvature="0"
       id="path6440"
       d="M 57.570214,102.15586 C 71.008137,81.126377 86.627542,71.61512 86.627542,47.182531 c 0,-6.718962 -1.657926,-13.001627 -4.537481,-18.586219 L 28.338367,92.38282 c 2.26874,2.96681 4.62474,6.36992 6.89348,9.86029 C 43.434216,114.8957 41.165476,122.4 46.40103,122.4 c 5.235555,0 2.966815,-7.59155 11.169184,-20.24414" />
  </g>
</svg>
