<?xml version="1.0" encoding="UTF-8" standalone="no"?>
<!-- Svg Vector Icons : http://www.onlinewebfonts.com/icon -->

<svg
   xmlns:dc="http://purl.org/dc/elements/1.1/"
   xmlns:cc="http://creativecommons.org/ns#"
   xmlns:rdf="http://www.w3.org/1999/02/22-rdf-syntax-ns#"
   xmlns:svg="http://www.w3.org/2000/svg"
   xmlns="http://www.w3.org/2000/svg"
   xmlns:sodipodi="http://sodipodi.sourceforge.net/DTD/sodipodi-0.dtd"
   xmlns:inkscape="http://www.inkscape.org/namespaces/inkscape"
   version="1.1"
   x="0px"
   y="0px"
   viewBox="0 0 1000 1000"
   enable-background="new 0 0 1000 1000"
   xml:space="preserve"
   id="svg24"
   sodipodi:docname="20d0bffc1fd13153318a605f6776462b.svg"
   inkscape:version="0.92.5 (2060ec1f9f, 2020-04-08)"><defs
   id="defs28" /><sodipodi:namedview
   pagecolor="#ffffff"
   bordercolor="#666666"
   borderopacity="1"
   objecttolerance="10"
   gridtolerance="10"
   guidetolerance="10"
   inkscape:pageopacity="0"
   inkscape:pageshadow="2"
   inkscape:window-width="2341"
   inkscape:window-height="1368"
   id="namedview26"
   showgrid="false"
   inkscape:zoom="0.6675088"
   inkscape:cx="915.21511"
   inkscape:cy="459.74133"
   inkscape:window-x="1267"
   inkscape:window-y="0"
   inkscape:window-maximized="0"
   inkscape:current-layer="svg24" />
<metadata
   id="metadata2"> Svg Vector Icons : http://www.onlinewebfonts.com/icon <rdf:RDF><cc:Work
     rdf:about=""><dc:format>image/svg+xml</dc:format><dc:type
       rdf:resource="http://purl.org/dc/dcmitype/StillImage" /></cc:Work></rdf:RDF></metadata>
<path
   d="m 148.73,12.92 c -10.34,4.4 -20.67,15.7 -24.89,26.99 -3.83,10.15 -3.83,15.5 -3.83,464.98 0,388.6 0.38,455.41 2.68,459.81 1.53,2.87 6.13,8.42 10.15,12.25 14.55,14.17 -16.85,13.02 367.16,13.02 384.01,0 352.61,1.15 367.16,-13.02 4.02,-3.83 8.61,-9.38 10.15,-12.25 2.3,-4.4 2.68,-58.39 2.68,-366.59 0,-252.3 -0.57,-363.72 -2.11,-369.08 C 876.16,222.52 861.03,206.44 774.13,119.15 705.4,50.25 669.8,15.99 664.63,13.5 657.36,10.05 647.4,9.86 406.2,10.05 c -219.57,0 -251.54,0.38 -257.47,2.87 z M 643,142.33 c -0.19,53.98 -0.77,98.39 -1.15,98.78 -0.38,0.38 -4.21,-1.53 -8.42,-4.4 -10.91,-7.27 -28.33,-8.81 -34.27,-3.06 -6.13,5.74 -7.46,12.83 -3.83,20.29 3.06,6.51 4.79,7.47 16.84,9.38 13.59,2.3 14.17,3.83 14.74,52.64 0.19,24.31 1.34,46.14 2.49,49.96 2.49,7.85 9.76,19.91 16.65,27.18 l 4.98,5.36 -4.98,5.17 c -17.03,18.57 -18.75,25.84 -18.94,74.66 0,22.59 -0.96,43.65 -2.11,46.71 -1.92,5.55 -4.98,6.89 -21.25,10.34 -3.64,0.76 -6.32,3.06 -8.42,7.46 -3.45,7.66 -2.3,14.74 3.45,20.48 3.45,3.45 5.74,4.02 15.12,3.25 14.74,-1.15 29.29,-10.34 38.48,-24.69 l 6.51,-10.15 0.96,-47.09 c 0.96,-42.88 1.34,-47.47 4.98,-53.6 4.97,-8.8 16.64,-15.31 27.17,-15.31 16.27,0 25.08,-16.27 15.12,-27.95 -3.64,-4.21 -6.89,-5.55 -16.27,-6.51 -13.21,-1.72 -21.63,-6.7 -26.8,-15.89 -2.68,-5.17 -3.45,-13.4 -4.21,-53.22 l -0.96,-47.09 -5.36,-8.04 c -3.06,-4.59 -5.17,-8.61 -4.79,-9 0.38,-0.38 44.99,-0.96 98.78,-1.15 l 98.01,-0.57 V 457.23 668.38 H 500 154.47 V 357.69 c 0,-170.95 0.57,-311.46 1.34,-312.03 0.57,-0.77 110.65,-1.34 244.45,-1.34 h 243.31 z m 105.86,-0.38 70.83,70.83 h -71.4 -71.21 v -70.83 c 0,-39.05 0.19,-70.83 0.57,-70.83 0.19,0 32.35,31.77 71.21,70.83 z m 96.67,687.23 V 955.52 H 500 154.47 V 829.18 702.84 H 500 845.53 Z"
   id="path4"
   inkscape:connector-curvature="0"
   style="stroke-width:0.1" /><path
   d="m 355.47,234.02 c -11.49,5.17 -22.4,15.89 -27.95,27.57 -4.4,9.19 -4.59,11.29 -4.59,51.69 0,40.01 -0.19,42.69 -4.21,50.73 -5.93,11.29 -12.06,15.31 -26.23,17.04 -14.93,1.72 -20.29,6.32 -20.29,17.42 0,11.1 5.36,15.7 20.29,17.42 14.17,1.72 20.29,5.74 26.23,17.04 4.02,8.04 4.21,10.72 4.21,50.73 0,40.2 0.19,42.5 4.59,51.88 8.42,18 24.12,29.48 42.69,31.01 8.61,0.77 10.53,0.19 14.74,-4.02 3.45,-3.45 4.98,-7.08 4.98,-11.49 0,-9.57 -5.17,-14.74 -16.27,-16.85 -16.27,-3.06 -15.7,-1.72 -16.65,-52.07 -0.96,-50.73 -2.68,-58.58 -17.04,-74.85 l -7.85,-8.81 7.85,-8.81 c 14.17,-16.27 16.08,-24.12 17.04,-74.47 0.77,-49.77 0.77,-49.77 15.31,-51.88 11.29,-1.72 17.61,-7.85 17.61,-17.04 0,-15.11 -15.89,-20.66 -34.46,-12.24 z"
   id="path6"
   inkscape:connector-curvature="0"
   style="stroke-width:0.1" /><path
   d="m 286.56,815.59 c 0,37.9 -0.77,69.11 -1.91,71.79 -0.96,2.68 -4.02,6.32 -7.08,8.23 -7.27,4.79 -28.52,4.21 -43.45,-1.15 -12.44,-4.4 -13.59,-4.02 -19.33,6.51 -3.64,7.08 -3.64,7.08 0,9.76 7.66,5.74 33.31,12.25 47.67,12.25 24.31,0 39.82,-7.08 47.67,-21.63 4.02,-7.85 4.21,-9.76 4.79,-80.4 l 0.57,-72.17 H 301.1 286.55 v 66.81 z"
   id="path12"
   inkscape:connector-curvature="0"
   style="stroke-width:0.1" /><path
   d="m 393.18,750.69 c -24.31,6.13 -37.71,22.4 -37.71,45.94 0,21.06 9.95,33.12 40.39,48.81 22.97,11.87 30.44,19.14 30.44,29.48 0,23.55 -21.82,32.16 -54.17,21.44 -7.27,-2.49 -13.4,-4.02 -13.59,-3.83 -0.38,0.38 -1.53,4.59 -2.68,9.38 -2.11,7.85 -1.91,9 1.72,11.87 9.76,8.23 41.92,11.68 59.92,6.51 29.29,-8.61 43.65,-41.73 28.91,-67.38 -5.74,-9.76 -13.02,-15.31 -33.5,-25.65 -22.01,-10.91 -28.14,-15.89 -30.82,-24.7 -5.93,-20.1 17.99,-35.8 43.26,-28.14 5.17,1.53 9.57,2.68 9.57,2.49 0.19,-0.19 2.49,-4.4 5.36,-9.38 2.87,-4.98 5.17,-9.38 5.17,-9.76 0,-0.58 -4.02,-2.3 -9,-4.02 -11.68,-3.83 -33.89,-5.36 -43.27,-3.06 z"
   id="path14"
   inkscape:connector-curvature="0"
   style="stroke-width:0.1" /><path
   d="m 534.07,750.69 c -16.27,3.45 -33.12,15.12 -42.11,29.48 -8.61,13.4 -12.25,27.56 -13.4,49.96 -2.1,43.26 11.87,72.93 41.35,87.48 7.46,3.64 11.87,4.4 28.91,4.4 19.33,0 20.48,-0.19 32.35,-6.7 24.89,-13.4 38.48,-41.54 38.48,-79.25 -0.19,-38.67 -15.89,-68.34 -42.88,-80.78 -11.11,-4.97 -30.64,-7.08 -42.7,-4.59 z m 27.76,24.12 c 18.57,7.66 27.18,24.7 28.71,56.28 1.92,42.31 -11.49,66.62 -37.9,68.53 -14.55,1.15 -23.16,-1.91 -31.4,-11.1 -10.91,-12.06 -15.12,-29.48 -14.17,-57.05 0.57,-19.33 1.53,-23.93 5.74,-32.93 7.46,-15.31 11.87,-19.72 23.93,-24.12 9.59,-3.44 16.48,-3.25 25.09,0.39 z"
   id="path16"
   inkscape:connector-curvature="0"
   style="stroke-width:0.1" /><path
   d="m 658.31,837.22 0.57,84.8 13.78,0.57 13.97,0.57 0.38,-58.39 0.57,-58.39 33.12,58.39 33.12,58.39 13.78,-0.57 13.78,-0.57 0.57,-84.8 0.38,-84.61 H 768 753.64 l -0.38,57.62 -0.57,57.81 -32.55,-57.24 -32.54,-57.24 -14.93,-0.57 -14.74,-0.58 z"
   id="path18"
   inkscape:connector-curvature="0"
   style="stroke-width:0.1" />
</svg>