<?xml version="1.0" encoding="UTF-8" standalone="no"?>
<!-- Created with Inkscape (http://www.inkscape.org/) -->

<svg
   xmlns:dc="http://purl.org/dc/elements/1.1/"
   xmlns:cc="http://creativecommons.org/ns#"
   xmlns:rdf="http://www.w3.org/1999/02/22-rdf-syntax-ns#"
   xmlns:svg="http://www.w3.org/2000/svg"
   xmlns="http://www.w3.org/2000/svg"
   xmlns:xlink="http://www.w3.org/1999/xlink"
   xmlns:sodipodi="http://sodipodi.sourceforge.net/DTD/sodipodi-0.dtd"
   xmlns:inkscape="http://www.inkscape.org/namespaces/inkscape"
   width="24mm"
   height="24mm"
   viewBox="0 0 85.03937 85.03937"
   id="svg2"
   version="1.1"
   inkscape:version="0.92.2 (5c3e80d, 2017-08-06)"
   sodipodi:docname="enmapbox.svg">
  <defs
     id="defs4">
    <linearGradient
       id="EnMAP"
       inkscape:collect="always">
      <stop
         id="stop5260"
         offset="0"
         style="stop-color:#f11920;stop-opacity:1" />
      <stop
         style="stop-color:#f11920;stop-opacity:1"
         offset="0.12559669"
         id="stop6781" />
      <stop
         style="stop-color:#ef8c25;stop-opacity:1"
         offset="0.22124822"
         id="stop6779" />
      <stop
         style="stop-color:#ffc20a;stop-opacity:1"
         offset="0.31900972"
         id="stop6763" />
      <stop
         id="stop6765"
         offset="0.42916322"
         style="stop-color:#96c749;stop-opacity:1" />
      <stop
         style="stop-color:#3abd82;stop-opacity:1"
         offset="0.49728993"
         id="stop5267" />
      <stop
         id="stop6767"
         offset="0.57483345"
         style="stop-color:#00acf0;stop-opacity:1" />
      <stop
         style="stop-color:#006ebd;stop-opacity:1"
         offset="0.62982935"
         id="stop6769" />
      <stop
         style="stop-color:#2a54aa;stop-opacity:1"
         offset="0.68956089"
         id="stop5265" />
      <stop
         id="stop6771"
         offset="0.71729618"
         style="stop-color:#3d49a1;stop-opacity:1" />
      <stop
         style="stop-color:#6c2b8c;stop-opacity:1"
         offset="0.78578585"
         id="stop6773" />
      <stop
         id="stop6775"
         offset="0.86929214"
         style="stop-color:#6c2b8c;stop-opacity:1" />
      <stop
         style="stop-color:#6c2b8c;stop-opacity:1"
         offset="0.94613242"
         id="stop6777" />
      <stop
         id="stop5262"
         offset="1"
         style="stop-color:#6c2b8c;stop-opacity:1" />
    </linearGradient>
    <clipPath
       id="clipPath26">
      <path
         id="path28"
         inkscape:connector-curvature="0"
         d="M 2362.38,3289.96 3754.11,6.80078 3641.8,151.695 2640.37,2534.35 3412.13,445.691 3334.48,520.086 2556,2631.38 3172.66,695.02 l -18.02,-0.004 -48.52,39.734 -622.04,1973.96 477.78,-1855.796 -59.5,44.93 -489.59,1907.296 353.27,-1804.34 -55.73,34.08 -355.81,1835.76 209.8,-1746.44 -51.89,28.52 -207.45,1766.52 72.29,-1692.23 -53.51,24.09 -66.25,1704.29 -86.87,-1635.36 -48.91,16.08 94.6,1658.46 -257.22,-1604.98 -45.65,12.57 259.68,1627.16 -445.14,-1576.09 -50.91,8.91 455.88,1590.29 -656.68,-1555.14 -53.13,2.14 666.01,1572.08 -928.64,-1561.46 -47.53,1.93 1056.19,1777.98 193.21,0 z" />
    </clipPath>
    <clipPath
       id="clipPath26-7">
      <path
         id="path28-8"
         inkscape:connector-curvature="0"
         d="M 2362.38,3289.96 3754.11,6.80078 3641.8,151.695 2640.37,2534.35 3412.13,445.691 3334.48,520.086 2556,2631.38 3172.66,695.02 l -18.02,-0.004 -48.52,39.734 -622.04,1973.96 477.78,-1855.796 -59.5,44.93 -489.59,1907.296 353.27,-1804.34 -55.73,34.08 -355.81,1835.76 209.8,-1746.44 -51.89,28.52 -207.45,1766.52 72.29,-1692.23 -53.51,24.09 -66.25,1704.29 -86.87,-1635.36 -48.91,16.08 94.6,1658.46 -257.22,-1604.98 -45.65,12.57 259.68,1627.16 -445.14,-1576.09 -50.91,8.91 455.88,1590.29 -656.68,-1555.14 -53.13,2.14 666.01,1572.08 -928.64,-1561.46 -47.53,1.93 1056.19,1777.98 z" />
    </clipPath>
    <linearGradient
       inkscape:collect="always"
       xlink:href="#EnMAP"
       id="linearGradient7549"
       x1="39.793995"
       y1="978.22559"
       x2="70.943108"
       y2="1051.6084"
       gradientUnits="userSpaceOnUse"
       gradientTransform="translate(-35.909678,-2.3704344)" />
  </defs>
  <sodipodi:namedview
     id="base"
     pagecolor="#ffffff"
     bordercolor="#666666"
     borderopacity="1.0"
     inkscape:pageopacity="0.0"
     inkscape:pageshadow="2"
     inkscape:zoom="6.3397144"
     inkscape:cx="22.803766"
     inkscape:cy="45.004327"
     inkscape:document-units="px"
     inkscape:current-layer="layer1"
     showgrid="false"
     inkscape:window-width="1920"
     inkscape:window-height="1017"
     inkscape:window-x="1912"
     inkscape:window-y="-8"
     inkscape:window-maximized="1"
     inkscape:measure-start="54.5688,53.6296"
     inkscape:measure-end="53.3203,54.1489" />
  <metadata
     id="metadata7">
    <rdf:RDF>
      <cc:Work
         rdf:about="">
        <dc:format>image/svg+xml</dc:format>
        <dc:type
           rdf:resource="http://purl.org/dc/dcmitype/StillImage" />
        <dc:title />
      </cc:Work>
    </rdf:RDF>
  </metadata>
  <g
     inkscape:label="Ebene 1"
     inkscape:groupmode="layer"
     id="layer1"
     transform="translate(0,-967.32283)"
     style="display:inline">
    <g
       style="display:inline"
       id="g3425"
       transform="matrix(0.20215868,0,0,0.20215868,-23.677639,967.18032)"
       inkscape:label="Gradient" />
    <path
       style="fill:url(#linearGradient7549);fill-opacity:1;fill-rule:evenodd;stroke:none;stroke-width:0.93749994;stroke-miterlimit:4;stroke-dasharray:none;stroke-dashoffset:0;stroke-opacity:1"
       d="m 37.651644,968.68526 -26.566771,44.80604 c 0.470076,0.013 0.911556,0.018 1.397094,0.037 l 22.842406,-38.5256 -16.473998,38.9559 c 0.418266,0.042 0.840622,0.087 1.265259,0.1355 l 16.688231,-39.46128 -11.411132,40.23758 c 0.402845,0.073 0.800455,0.1359 1.206665,0.2161 l 11.239013,-39.6352 -6.474609,40.7576 c 0.394563,0.1066 0.786719,0.2037 1.182862,0.3186 l 6.265868,-39.44473 -2.213745,40.78693 c 0.39866,0.1452 0.796689,0.2882 1.195679,0.4431 l 2.23938,-41.23186 1.636963,42.88716 c 0.414685,0.1961 0.829549,0.3943 1.243285,0.6024 l -1.539916,-40.33099 4.989624,42.22429 c 0.322176,0.1914 0.644104,0.3809 0.964966,0.5804 0.12436,0.077 0.233657,0.1522 0.357055,0.2289 l -5.170898,-43.7477 8.939209,46.1684 c 0.499808,0.3338 0.953196,0.6623 1.435546,0.9942 l -8.316649,-42.94934 11.636349,45.31324 c 0.52718,0.39 1.05391,0.7797 1.55823,1.1664 L 45.505037,982.46974 61.51029,1033.2103 c 0.61793,0.5207 1.18588,1.0322 1.76513,1.5454 L 48.674593,988.46614 66.99979,1038.2289 c 0.73071,0.7257 1.43057,1.4445 2.09106,2.1496 L 51.596956,992.87166 74.62247,1046.9703 c 1.23327,1.6458 2.25836,3.1578 3.20251,4.5996 l 0.0678,-0.029 -34.797392,-81.75305 -0.406494,-1.10229 z"
       id="rect7300"
       inkscape:connector-curvature="0"
       inkscape:label="SpectralBeams" />
  </g>
</svg>
