<?xml version="1.0" encoding="UTF-8" standalone="no"?>
<svg
   xmlns:dc="http://purl.org/dc/elements/1.1/"
   xmlns:cc="http://creativecommons.org/ns#"
   xmlns:rdf="http://www.w3.org/1999/02/22-rdf-syntax-ns#"
   xmlns:svg="http://www.w3.org/2000/svg"
   xmlns="http://www.w3.org/2000/svg"
   xmlns:xlink="http://www.w3.org/1999/xlink"
   xmlns:sodipodi="http://sodipodi.sourceforge.net/DTD/sodipodi-0.dtd"
   xmlns:inkscape="http://www.inkscape.org/namespaces/inkscape"
   version="1.1"
   width="600"
   height="287"
   id="svg2"
   xml:space="preserve"
   inkscape:version="1.0.1 (3bc2e813f5, 2020-09-07)"
   sodipodi:docname="logo_enmapbox_black_text_glow.svg"
   inkscape:export-filename="C:\Users\geo_beja\Repositories\enmap-box\enmapbox\gui\ui\logo\logo_enmapbox_black_text_glow.png"
   inkscape:export-xdpi="96"
   inkscape:export-ydpi="96"><title
     id="title1075">EnMAP-Box start screen</title><sodipodi:namedview
     pagecolor="#464646"
     bordercolor="#666666"
     borderopacity="1"
     objecttolerance="10000"
     gridtolerance="10000"
     guidetolerance="10"
     inkscape:pageopacity="0"
     inkscape:pageshadow="2"
     inkscape:window-width="1920"
     inkscape:window-height="1137"
     id="namedview4097"
     showgrid="true"
     fit-margin-top="0"
     fit-margin-left="0"
     fit-margin-right="0"
     fit-margin-bottom="0"
     inkscape:zoom="1.5868852"
     inkscape:cx="297.36873"
     inkscape:cy="102.88812"
     inkscape:window-x="1912"
     inkscape:window-y="-8"
     inkscape:window-maximized="1"
     inkscape:current-layer="layer4"
     inkscape:document-rotation="0"
     inkscape:pagecheckerboard="false"><inkscape:grid
       type="xygrid"
       id="grid2191" /></sodipodi:namedview><metadata
     id="metadata8"><rdf:RDF><cc:Work
         rdf:about=""><dc:format>image/svg+xml</dc:format><dc:type
           rdf:resource="http://purl.org/dc/dcmitype/StillImage" /><dc:title>EnMAP-Box start screen</dc:title><cc:license
           rdf:resource="http://creativecommons.org/licenses/by-sa/4.0/" /></cc:Work><cc:License
         rdf:about="http://creativecommons.org/licenses/by-sa/4.0/"><cc:permits
           rdf:resource="http://creativecommons.org/ns#Reproduction" /><cc:permits
           rdf:resource="http://creativecommons.org/ns#Distribution" /><cc:requires
           rdf:resource="http://creativecommons.org/ns#Notice" /><cc:requires
           rdf:resource="http://creativecommons.org/ns#Attribution" /><cc:permits
           rdf:resource="http://creativecommons.org/ns#DerivativeWorks" /><cc:requires
           rdf:resource="http://creativecommons.org/ns#ShareAlike" /></cc:License></rdf:RDF></metadata><defs
     id="defs6"><clipPath
       id="clipPath26"><path
         d="M 2362.38,3289.96 3754.11,6.80078 3641.8,151.695 2640.37,2534.35 3412.13,445.691 3334.48,520.086 2556,2631.38 3172.66,695.02 l -18.02,-0.004 -48.52,39.734 -622.04,1973.96 477.78,-1855.796 -59.5,44.93 -489.59,1907.296 353.27,-1804.34 -55.73,34.08 -355.81,1835.76 209.8,-1746.44 -51.89,28.52 -207.45,1766.52 72.29,-1692.23 -53.51,24.09 -66.25,1704.29 -86.87,-1635.36 -48.91,16.08 94.6,1658.46 -257.22,-1604.98 -45.65,12.57 259.68,1627.16 -445.14,-1576.09 -50.91,8.91 455.88,1590.29 -656.68,-1555.14 -53.13,2.14 666.01,1572.08 -928.64,-1561.46 -47.53,1.93 1056.19,1777.98 z"
         inkscape:connector-curvature="0"
         id="path28" /></clipPath><clipPath
       id="clipPath26-7"><path
         d="M 2362.38,3289.96 3754.11,6.80078 3641.8,151.695 2640.37,2534.35 3412.13,445.691 3334.48,520.086 2556,2631.38 3172.66,695.02 l -18.02,-0.004 -48.52,39.734 -622.04,1973.96 477.78,-1855.796 -59.5,44.93 -489.59,1907.296 353.27,-1804.34 -55.73,34.08 -355.81,1835.76 209.8,-1746.44 -51.89,28.52 -207.45,1766.52 72.29,-1692.23 -53.51,24.09 -66.25,1704.29 -86.87,-1635.36 -48.91,16.08 94.6,1658.46 -257.22,-1604.98 -45.65,12.57 259.68,1627.16 -445.14,-1576.09 -50.91,8.91 455.88,1590.29 -656.68,-1555.14 -53.13,2.14 666.01,1572.08 -928.64,-1561.46 -47.53,1.93 1056.19,1777.98 z"
         inkscape:connector-curvature="0"
         id="path28-5" /></clipPath><filter
       inkscape:collect="always"
       style="color-interpolation-filters:sRGB"
       id="filter6293"
       x="-0.047256444"
       width="1.0945129"
       y="-0.077806063"
       height="1.1556121"><feGaussianBlur
         inkscape:collect="always"
         stdDeviation="11.670909"
         id="feGaussianBlur6295" /></filter><linearGradient
       inkscape:collect="always"
       xlink:href="#EnMAP"
       id="linearGradient7549"
       x1="39.793995"
       y1="978.22559"
       x2="70.943108"
       y2="1051.6084"
       gradientUnits="userSpaceOnUse"
       gradientTransform="matrix(2.8525498,0,0,2.8582864,22.463308,-2526.2329)" /><linearGradient
       id="EnMAP"
       inkscape:collect="always"><stop
         id="stop5260"
         offset="0"
         style="stop-color:#f11920;stop-opacity:1" /><stop
         style="stop-color:#f11920;stop-opacity:1"
         offset="0.22980291"
         id="stop6781" /><stop
         style="stop-color:#ef9024;stop-opacity:1"
         offset="0.34516698"
         id="stop6779" /><stop
         style="stop-color:#ffc20a;stop-opacity:1"
         offset="0.44846991"
         id="stop6763" /><stop
         id="stop6765"
         offset="0.54175341"
         style="stop-color:#adca3b;stop-opacity:1" /><stop
         style="stop-color:#1dba95;stop-opacity:1"
         offset="0.61961347"
         id="stop5267" /><stop
         style="stop-color:#00acf1;stop-opacity:1"
         offset="0.73622459"
         id="stop5265" /><stop
         id="stop6771"
         offset="0.83068395"
         style="stop-color:#006fbd;stop-opacity:1" /><stop
         style="stop-color:#6c2b8c;stop-opacity:1"
         offset="0.94613242"
         id="stop6777" /><stop
         id="stop5262"
         offset="1"
         style="stop-color:#6c2b8c;stop-opacity:1" /></linearGradient></defs><flowRoot
     xml:space="preserve"
     id="flowRoot3602"
     style="font-style:normal;font-weight:normal;line-height:0.01%;font-family:sans-serif;letter-spacing:0px;word-spacing:0px;fill:#000000;fill-opacity:1;stroke:none;stroke-width:1px;stroke-linecap:butt;stroke-linejoin:miter;stroke-opacity:1"
     transform="translate(0,-131.33255)"><flowRegion
       id="flowRegion3604"><rect
         id="rect3606"
         width="94"
         height="82"
         x="-145"
         y="202.33255" /></flowRegion><flowPara
       id="flowPara3608"
       style="font-size:40px;line-height:1.25">Developed</flowPara></flowRoot><g
     inkscape:groupmode="layer"
     id="layer4"
     inkscape:label="Glow"
     style="display:inline;opacity:1;mix-blend-mode:normal"
     transform="translate(0,-213)"><path
       style="display:inline;opacity:1;fill:#ffffff;fill-opacity:1;stroke:#ffffff;stroke-width:17.9175;stroke-linejoin:round;stroke-miterlimit:4;stroke-dasharray:none;stroke-dashoffset:0;stroke-opacity:1;filter:url(#filter6293)"
       d="m 30.064851,68.706078 h 58.454887 l 7.306861,15.144349 h 51.148021 l 14.61373,-15.144349 h 21.92058 l 7.30686,15.144349 14.61751,-15.144349 h 21.91679 l 7.30687,22.716523 36.5343,-22.716523 29.22744,22.716523 7.06301,-22.716523 h 51.39188 l 14.61372,15.144349 15.39176,-15.144349 h 50.36999 l 14.61372,15.144349 h 21.92058 94.9892 L 556.15883,121.7113 570.77256,152 H 379.25431 l 1.53986,-15.14435 H 336.95301 L 322.33929,152 439.24906,439.74262 424.63534,454.88697 366.18045,379.16523 293.11184,333.73218 220.04323,303.44348 132.3609,288.29913 205.42951,152 H 22.75799 Z"
       id="rect6084"
       inkscape:connector-curvature="0"
       sodipodi:nodetypes="ccccccccccccccccccccccccccccccccccc"
       transform="matrix(0.68428838,0,0,0.66031232,49.426969,192.63253)" /></g><g
     inkscape:groupmode="layer"
     id="layer2"
     inkscape:label="Logo"
     style="display:inline;opacity:1"
     transform="translate(0,-213)"
     sodipodi:insensitive="true"><path
       style="display:inline;fill:url(#linearGradient7549);fill-opacity:1;fill-rule:evenodd;stroke:none;stroke-width:1.78524;stroke-miterlimit:4;stroke-dasharray:none;stroke-dashoffset:0;stroke-opacity:1"
       d="m 232.30063,249.32229 -75.78304,128.06826 c 1.34092,0.0371 2.60027,0.0515 3.98528,0.10576 l 65.1591,-110.11696 -46.99289,111.34691 c 1.19312,0.12007 2.39791,0.24864 3.60921,0.38725 l 47.60402,-112.79139 -32.55082,115.01031 c 1.14913,0.20868 2.28332,0.38842 3.44207,0.61767 L 232.8334,268.66159 214.36425,385.15824 c 1.12551,0.30468 2.24416,0.58221 3.37418,0.91066 l 17.8737,-112.74411 -6.31481,116.58045 c 1.13719,0.41509 2.27259,0.82378 3.41072,1.26657 l 6.38795,-117.85226 4.66952,122.5835 c 1.1829,0.5606 2.36633,1.1271 3.54653,1.72186 l -4.39269,-115.27726 14.23316,120.68892 c 0.91902,0.54699 1.83732,1.08869 2.75261,1.65889 0.35473,0.22007 0.66652,0.43504 1.01851,0.65425 l -14.75024,-125.04319 25.49954,131.96231 c 1.42572,0.95412 2.71905,1.89298 4.09496,2.84163 L 252.04424,292.34923 285.2375,421.86721 c 1.50381,1.11471 3.00634,2.22863 4.44493,3.33393 l -34.97959,-136.47885 45.65577,145.0308 c 1.76266,1.4883 3.38278,2.95038 5.03513,4.41726 l -41.64959,-132.30863 52.27354,142.23595 c 2.08439,2.07433 4.08077,4.12877 5.96485,6.14417 l -49.90221,-135.78789 65.68143,154.62914 c 3.51795,4.70414 6.4421,9.02589 9.13532,13.14703 l 0.1934,-0.0823 -99.26128,-233.67337 -1.15956,-3.15066 z"
       id="rect7300"
       inkscape:connector-curvature="0" /><g
       id="g12037"
       transform="matrix(0.61576614,0,0,0.61576614,184.33188,-104.82697)"
       style="display:inline;fill:#000000;fill-opacity:1"><path
         inkscape:connector-curvature="0"
         style="fill:#000000;fill-opacity:1;fill-rule:nonzero;stroke:none"
         d="m 189.67835,616.86296 c 0.38909,-4.71497 0.63171,-9.21936 0.73242,-13.51318 4.61426,0.13275 8.97217,0.20141 13.06915,0.20141 4.16108,0 8.53271,-0.0687 13.11951,-0.20141 -0.3891,4.19769 -0.63629,8.70208 -0.73242,13.51318 -4.61426,-0.0687 -8.99049,-0.10071 -13.11952,-0.10071 -4.12902,0 -8.48235,0.032 -13.06914,0.10071"
         id="path6188" /><path
         inkscape:connector-curvature="0"
         style="fill:#000000;fill-opacity:1;fill-rule:evenodd;stroke:none"
         d="m 221.52496,636.0753 c 0.68207,-7.17316 1.13984,-12.81281 1.36872,-16.91895 0.325,-5.6076 0.64087,-13.30261 0.95214,-23.08044 0.30671,-9.78241 0.46234,-16.67633 0.46234,-20.68634 0,-1.43738 -0.0137,-3.45611 -0.0458,-6.06537 4.32587,0.10071 7.76367,0.14649 10.29968,0.14649 3.55225,0 7.68586,-0.0732 12.4054,-0.21973 4.71954,-0.14648 8.77075,-0.21972 12.1582,-0.21972 4.06953,0 6.96716,0.11444 8.69293,0.34332 2.27966,0.29297 4.27094,0.81482 5.98298,1.56097 1.70745,0.75073 3.13109,1.67999 4.27093,2.78778 1.268,1.30463 2.26136,2.87018 2.97546,4.69208 0.81482,2.0874 1.22223,4.31671 1.22223,6.69708 0,1.85852 -0.23804,3.63465 -0.70953,5.32837 -0.4715,1.69373 -1.13984,3.19977 -2.00043,4.52271 -0.8606,1.31835 -1.83105,2.41699 -2.9068,3.29589 -1.07116,0.87891 -2.12402,1.56555 -3.14941,2.05536 -1.02539,0.48981 -2.39868,0.97962 -4.12445,1.46485 1.72119,0.29754 3.10364,0.62713 4.13818,1.0025 1.03913,0.37536 2.15149,0.97961 3.3371,1.81274 1.1856,0.83313 2.24761,1.89972 3.19061,3.20435 0.94299,1.30462 1.64795,2.76489 2.11945,4.37622 0.47149,1.6159 0.70495,3.31878 0.70495,5.11322 0,2.48108 -0.40741,4.81109 -1.21765,6.99463 -0.81482,2.18811 -1.95465,4.06494 -3.41949,5.63049 -1.23597,1.33667 -2.84729,2.4765 -4.82941,3.42407 -1.9867,0.94299 -4.01916,1.5976 -6.10199,1.95465 -1.68914,0.26093 -4.77448,0.45776 -9.24682,0.59052 -4.47694,0.12817 -9.21478,0.19226 -14.2273,0.19226 l -12.83569,-0.0458 z m 21.85364,-40.73181 h 6.88935 c 2.26134,0 3.87267,-0.0549 4.82482,-0.16937 0.95673,-0.11445 1.88599,-0.32044 2.79236,-0.61341 0.9018,-0.29296 1.68914,-0.78277 2.35291,-1.46484 0.65918,-0.68665 1.13067,-1.45111 1.40533,-2.29797 0.27465,-0.85144 0.41199,-1.69831 0.41199,-2.54517 0,-1.2085 -0.28382,-2.28424 -0.85144,-3.23181 -0.56305,-0.94299 -1.47858,-1.64337 -2.74201,-2.10114 -1.26342,-0.45776 -3.19061,-0.68664 -5.78155,-0.68664 h -8.73871 z m -1.17188,27.32391 h 9.32465 c 2.46276,0 4.27551,-0.14648 5.44281,-0.44403 1.42365,-0.35706 2.50855,-0.83313 3.2547,-1.41907 0.74158,-0.59051 1.33209,-1.38702 1.77154,-2.39868 0.43488,-1.01623 0.65461,-2.14233 0.65461,-3.38287 0,-1.07575 -0.17854,-2.0279 -0.53558,-2.84271 -0.35248,-0.81482 -0.88807,-1.50147 -1.5976,-2.05994 -0.71411,-0.55389 -1.58844,-0.95215 -2.61841,-1.19934 -1.03913,-0.24262 -2.65502,-0.36621 -4.85229,-0.36621 h -10.24018 l -0.60425,14.11285"
         id="path6190" /><path
         inkscape:connector-curvature="0"
         style="fill:#000000;fill-opacity:1;fill-rule:evenodd;stroke:none"
         d="m 320.7727,584.93852 c 4.04205,0 7.93304,0.61798 11.66839,1.85395 3.73535,1.24053 6.88935,3.02123 9.46655,5.35125 2.57721,2.33002 4.47694,5.05371 5.69917,8.16193 1.22221,3.11279 1.83562,6.45904 1.83562,10.04333 0,3.48816 -0.54932,6.80237 -1.64337,9.9472 -1.08948,3.14484 -2.93884,6.09284 -5.55267,8.84858 -2.60926,2.75116 -5.92346,4.81109 -9.95636,6.1798 -4.02374,1.36872 -8.29011,2.05536 -12.78992,2.05536 -4.14276,0 -8.12073,-0.60424 -11.93847,-1.80816 -3.81318,-1.2085 -7.00378,-2.96631 -9.56269,-5.2826 -2.55889,-2.3117 -4.48608,-5.08117 -5.7724,-8.30841 -1.28631,-3.22265 -1.93175,-6.6101 -1.93175,-10.16235 0,-3.55224 0.62713,-6.93969 1.8814,-10.16693 1.25885,-3.22723 3.24555,-6.12488 5.96924,-8.69751 2.72369,-2.57721 6.09283,-4.55475 10.10285,-5.94177 4.01,-1.38245 8.1848,-2.07367 12.52441,-2.07367 z m -0.34333,14.4104 c -2.0874,0 -3.94592,0.53558 -5.58014,1.60675 -1.62963,1.07117 -2.86102,2.6413 -3.68957,4.70123 -0.83312,2.06452 -1.24969,4.31214 -1.24969,6.74744 0,3.57513 0.89721,6.31256 2.69164,8.21228 1.79444,1.89972 4.04206,2.85187 6.75202,2.85187 2.05536,0 3.89557,-0.54474 5.52978,-1.63422 1.62965,-1.08948 2.86103,-2.69623 3.69415,-4.82483 0.82856,-2.1286 1.24512,-4.40826 1.24512,-6.84356 0,-2.01416 -0.32501,-3.83149 -0.97504,-5.45655 -0.65459,-1.62506 -1.72119,-2.92511 -3.20892,-3.90014 -1.48315,-0.97504 -3.21807,-1.46027 -5.20935,-1.46027"
         id="path6192" /><path
         inkscape:connector-curvature="0"
         style="fill:#000000;fill-opacity:1;fill-rule:nonzero;stroke:none"
         d="m 351.31469,636.0753 11.14654,-14.81781 8.26264,-11.34796 -15.30305,-23.77167 c 4.75617,0.0641 8.844,0.0961 12.2635,0.0961 4.2984,0 7.83691,-0.032 10.6018,-0.0961 l 5.15442,11.20148 c 0.325,0.68664 0.79651,1.74408 1.40991,3.17688 2.50854,-4.30298 5.47485,-9.09577 8.89893,-14.37836 2.89764,0.0641 6.37207,0.0961 10.41411,0.0961 3.74452,0 7.31507,-0.032 10.70252,-0.0961 l -7.82317,10.27222 c -1.52894,2.02331 -4.80195,6.45447 -9.82362,13.30261 3.00293,5.18646 8.48694,13.97095 16.44745,26.36261 -3.68042,-0.0641 -7.31506,-0.0961 -10.89478,-0.0961 -4.36706,0 -8.27637,0.032 -11.7279,0.0961 -2.12859,-4.56391 -3.75824,-7.93762 -4.88434,-10.12116 -1.13067,-2.18811 -2.0874,-4.19311 -2.87018,-6.01959 l -1.56554,2.69165 c -0.48981,0.81482 -1.24055,2.02332 -2.25221,3.62091 l -6.20726,9.82819 c -3.51563,-0.0641 -6.93971,-0.0961 -10.26307,-0.0961 -3.84522,0 -7.74078,0.032 -11.6867,0.0961"
         id="path6194" /><path
         inkscape:connector-curvature="0"
         style="fill:#000000;fill-opacity:1;fill-rule:nonzero;stroke:none"
         d="m -175.89627,636.0753 c 0.81482,-8.40912 1.40534,-15.4541 1.7807,-21.12579 0.37537,-5.6717 0.75073,-13.21106 1.1261,-22.61811 0.37537,-9.40246 0.56305,-15.6372 0.56305,-18.70422 l -0.0503,-4.30298 c 7.69043,0.0641 16.98761,0.0961 27.89611,0.0961 10.06623,0 18.94226,-0.0321 26.62811,-0.0961 l -0.0961,1.61133 c -0.032,0.39368 -0.11444,1.80817 -0.24261,4.25263 l -0.29755,5.32379 c -0.0641,1.13983 -0.0961,2.29797 -0.0961,3.46985 -6.28051,-0.26093 -11.54937,-0.3891 -15.81115,-0.3891 -4.6875,0 -7.85065,0.009 -9.49402,0.0229 -1.64337,0.0183 -4.20685,0.0916 -7.68585,0.21973 l -0.56305,11.21063 c 3.84064,0.0961 8.31757,0.14649 13.43079,0.14649 1.82189,0 6.67419,-0.11902 14.5523,-0.3479 -0.32501,4.17022 -0.63629,9.14153 -0.92926,14.90936 -5.64423,-0.0595 -9.98382,-0.0961 -13.0188,-0.0961 -4.49981,0 -9.53979,0.10071 -15.11535,0.29754 l -0.60425,11.91102 h 5.62134 c 1.6571,0 5.09491,-0.0504 10.30883,-0.15107 l 10.11658,-0.25177 c 1.49689,-0.032 4.00543,-0.16479 7.52106,-0.39825 -0.3891,4.83856 -0.71411,9.84192 -0.97504,15.01007 -7.94678,-0.0641 -16.65802,-0.0961 -26.13372,-0.0961 l -21.49658,0.0504 -6.93512,0.0458"
         id="path6196" /><path
         inkscape:connector-curvature="0"
         style="fill:#000000;fill-opacity:1;fill-rule:nonzero;stroke:none"
         d="m -110.85263,636.0753 c 0.94299,-7.40204 1.66626,-15.5777 2.17438,-24.52698 0.50353,-8.95386 0.80566,-17.42248 0.90179,-25.41046 3.91846,0.0641 7.29675,0.0961 10.139459,0.0961 3.30048,0 6.4682,-0.032 9.50318,-0.0961 l -0.43946,6.65131 c 1.07117,-1.19476 1.99585,-2.13776 2.77863,-2.83356 0.78278,-0.6958 1.74866,-1.37329 2.90222,-2.03705 1.15356,-0.66375 2.38037,-1.20392 3.685,-1.62506 1.30005,-0.42114 2.71911,-0.75073 4.26636,-0.99334 1.54266,-0.24262 3.16314,-0.36164 4.85229,-0.36164 2.34375,0 4.62799,0.25177 6.85272,0.75073 2.22931,0.50354 4.09241,1.21766 5.58471,2.14234 1.4969,0.92926 2.75117,2.07825 3.75825,3.46069 1.00708,1.37787 1.67541,2.86102 2.00043,4.45404 0.32501,1.59302 0.48522,3.23181 0.48522,4.91638 0,1.24054 -0.12817,3.91388 -0.38909,8.0246 l -0.83314,17.7063 c -0.16478,3.48816 -0.24719,6.71539 -0.24719,9.6817 -3.29132,-0.0641 -6.37207,-0.0961 -9.23767,-0.0961 -3.87726,0 -7.41577,0.032 -10.60638,0.0961 0.30212,-2.96631 0.62713,-7.37458 0.96588,-13.22937 0.33874,-5.8548 0.50812,-9.97009 0.50812,-12.35046 0,-3.67127 -0.70954,-6.23017 -2.1286,-7.6767 -1.42365,-1.44653 -3.2135,-2.1698 -5.36957,-2.1698 -1.89514,0 -3.68042,0.61798 -5.36499,1.85852 -1.67999,1.23596 -2.98004,3.03497 -3.89557,5.39703 -0.91553,2.36206 -1.56097,6.24848 -1.93634,11.65467 -0.37537,5.40618 -0.62714,10.91308 -0.75531,16.51611 -3.26385,-0.0641 -6.44073,-0.0961 -9.539789,-0.0961 -3.26386,0 -6.79779,0.032 -10.61554,0.0961"
         id="path6198" /><path
         inkscape:connector-curvature="0"
         style="fill:#000000;fill-opacity:1;fill-rule:nonzero;stroke:none"
         d="m -42.792341,636.0753 1.21308,-9.87854 2.99378,-34.27734 1.50146,-22.59522 c 6.01501,0.0641 10.73914,0.0961 14.17235,0.0961 2.8473,0 7.19605,-0.0321 13.0462798,-0.0961 0.42113,2.8061 0.77819,4.93012 1.07116,6.38123 0.29297,1.45111 1.01624,4.28924 2.1698,8.50983 1.14898,4.22058 2.07825,7.87353 2.77405,10.95428 0.70038,3.08075 1.74866,8.35419 3.14483003,15.82031 1.42822,-5.1178 2.73284997,-9.52148 3.90014997,-13.2019 1.17188,-3.685 2.63214,-7.87811 4.38995,-12.57019 1.75781,-4.69666 2.8701802,-7.76825 3.3416702,-9.21936 0.47151,-1.45111 1.11237,-3.67584 1.9272,-6.6742 4.89806,0.0641 9.69542,0.0961 14.40124,0.0961 3.19977,0 7.64007,-0.0321 13.32092,-0.0961 -0.63629,10.98633 -1.05286,20.42542 -1.25428,28.31269 -0.43029,15.4541 -0.64544,26.08337 -0.64544,31.88781 0,1.20392 0.032,3.39203 0.0961,6.55517 -4.30755,-0.0641 -7.32879,-0.10071 -9.05914,-0.10071 -2.51313,0 -5.59845,0.032 -9.25598,0.0961 0.26092,-2.93426 0.58136,-9.91974 0.97046,-20.95184 0.38452,-11.03668 0.58136,-18.08624 0.58136,-21.15326 0,-1.33667 -0.0366,-3.19519 -0.10066,-5.57556 l -6.39039,19.90357 -9.1690002,27.77709 c -4.23432,-0.0641 -7.14568997,-0.0961 -8.73871,-0.0961 -2.01873,0 -5.11322,0.032 -9.2742898,0.0961 l -6.01959,-26.89361 -3.51563,-14.328 c -0.13275,-0.55847 -0.27923,-1.24054 -0.44402,-2.05536 -0.16022,-0.81482 -0.42115,-2.2522 -0.78278,-4.30298 l -1.20849,13.54523 -1.5976,27.77709 -0.14648,6.25763 c -4.49982,-0.0641 -7.37,-0.0961 -8.60596,-0.0961 -1.6983,0 -4.63257,0.032 -8.80737,0.0961"
         id="path6200" /><path
         inkscape:connector-curvature="0"
         style="fill:#000000;fill-opacity:1;fill-rule:nonzero;stroke:none"
         d="m 132.24732,636.0753 0.98877,-12.51526 1.29089,-24.45373 0.54017,-17.31262 c 0.0366,-1.85852 0.0504,-3.71704 0.0504,-5.57557 0,-1.40075 -0.0137,-3.69873 -0.0504,-6.89392 4.2984,0.10071 7.74993,0.14649 10.35003,0.14649 2.50854,0 5.9372,-0.0732 10.29968,-0.21973 4.35791,-0.14648 8.05207,-0.21972 11.08246,-0.21972 4.35791,0 7.58973,0.27465 9.69085,0.83313 2.09657,0.55389 3.9917,1.42364 5.68544,2.61383 1.68914,1.19476 3.0899,2.58636 4.19769,4.18396 1.10778,1.59759 1.93633,3.41949 2.49023,5.45654 0.54932,2.04162 0.82855,4.11987 0.82855,6.23932 0,4.36706 -1.05743,8.36334 -3.1723,11.98425 -2.11487,3.62091 -5.09033,6.33087 -8.92639,8.1253 -3.83607,1.79444 -8.14819,2.69165 -12.92725,2.69165 -1.75781,0 -3.79028,-0.20141 -6.0974,-0.60425 -0.26093,-1.48773 -0.74616,-3.70788 -1.4557,-6.6513 -0.71411,-2.948 -1.29547,-5.13153 -1.74866,-6.55518 1.42823,0.26551 2.92054,0.39826 4.47693,0.39826 3.27759,0 5.72205,-0.79193 7.32422,-2.38037 1.60676,-1.58387 2.41242,-3.5202 2.41242,-5.80902 0,-1.11237 -0.18311,-2.09656 -0.54016,-2.96631 -0.35706,-0.86517 -0.92468,-1.57471 -1.70746,-2.13318 -0.78278,-0.55389 -1.64338,-0.91553 -2.58636,-1.07574 -0.943,-0.1648 -2.01875,-0.2472 -3.22266,-0.2472 -1.1673,0 -2.38954,0.032 -3.65754,0.0961 l -4.10156,0.29297 c -0.41657,6.28967 -0.73699,13.27972 -0.95672,20.97473 -0.41657,14.01215 -0.62714,22.42126 -0.62714,25.22278 v 6.35376 l -9.74579,-0.0961 c -1.36871,0 -4.76531,0.032 -10.18524,0.0961"
         id="path6202" /><path
         inkscape:connector-curvature="0"
         style="fill:#000000;fill-opacity:1;fill-rule:nonzero;stroke:none"
         d="m 41.797799,636.07987 35.4126,-66.75567 h 25.639341 l 23.93646,66.75567 h -22.15576 l -15.669241,-51.622 -23.57942,51.622 h -23.58398"
         id="path6204" /></g></g></svg>
